<?xml version="1.0" encoding="utf-8" standalone="no"?>
<!DOCTYPE svg PUBLIC "-//W3C//DTD SVG 1.1//EN"
  "http://www.w3.org/Graphics/SVG/1.1/DTD/svg11.dtd">
<!-- Created with matplotlib (https://matplotlib.org/) -->
<svg height="344.25004pt" version="1.1" viewBox="0 0 784.61875 344.25004" width="784.61875pt" xmlns="http://www.w3.org/2000/svg" xmlns:xlink="http://www.w3.org/1999/xlink">
 <defs>
  <style type="text/css">
*{stroke-linecap:butt;stroke-linejoin:round;}
  </style>
 </defs>
 <g id="figure_1">
  <g id="patch_1">
   <path d="M 0 344.25004 
L 784.61875 344.25004 
L 784.61875 0 
L 0 0 
z
" style="fill:#ffffff;"/>
  </g>
  <g id="axes_1">
   <g id="patch_2">
    <path d="M 50.14375 254.526588 
L 777.41875 254.526588 
L 777.41875 44.254431 
L 50.14375 44.254431 
z
" style="fill:#ffffff;"/>
   </g>
   <g id="matplotlib.axis_1">
    <g id="xtick_1">
     <g id="line2d_1">
      <defs>
       <path d="M 0 0 
L 0 3.5 
" id="m0422601713" style="stroke:#000000;stroke-width:0.8;"/>
      </defs>
      <g>
       <use style="stroke:#000000;stroke-width:0.8;" x="99.094952" xlink:href="#m0422601713" y="254.526588"/>
      </g>
     </g>
     <g id="text_1">
      <!-- (187, 2054] -->
      <defs>
       <path d="M 31 75.875 
Q 24.46875 64.65625 21.28125 53.65625 
Q 18.109375 42.671875 18.109375 31.390625 
Q 18.109375 20.125 21.3125 9.0625 
Q 24.515625 -2 31 -13.1875 
L 23.1875 -13.1875 
Q 15.875 -1.703125 12.234375 9.375 
Q 8.59375 20.453125 8.59375 31.390625 
Q 8.59375 42.28125 12.203125 53.3125 
Q 15.828125 64.359375 23.1875 75.875 
z
" id="DejaVuSans-40"/>
       <path d="M 12.40625 8.296875 
L 28.515625 8.296875 
L 28.515625 63.921875 
L 10.984375 60.40625 
L 10.984375 69.390625 
L 28.421875 72.90625 
L 38.28125 72.90625 
L 38.28125 8.296875 
L 54.390625 8.296875 
L 54.390625 0 
L 12.40625 0 
z
" id="DejaVuSans-49"/>
       <path d="M 31.78125 34.625 
Q 24.75 34.625 20.71875 30.859375 
Q 16.703125 27.09375 16.703125 20.515625 
Q 16.703125 13.921875 20.71875 10.15625 
Q 24.75 6.390625 31.78125 6.390625 
Q 38.8125 6.390625 42.859375 10.171875 
Q 46.921875 13.96875 46.921875 20.515625 
Q 46.921875 27.09375 42.890625 30.859375 
Q 38.875 34.625 31.78125 34.625 
z
M 21.921875 38.8125 
Q 15.578125 40.375 12.03125 44.71875 
Q 8.5 49.078125 8.5 55.328125 
Q 8.5 64.0625 14.71875 69.140625 
Q 20.953125 74.21875 31.78125 74.21875 
Q 42.671875 74.21875 48.875 69.140625 
Q 55.078125 64.0625 55.078125 55.328125 
Q 55.078125 49.078125 51.53125 44.71875 
Q 48 40.375 41.703125 38.8125 
Q 48.828125 37.15625 52.796875 32.3125 
Q 56.78125 27.484375 56.78125 20.515625 
Q 56.78125 9.90625 50.3125 4.234375 
Q 43.84375 -1.421875 31.78125 -1.421875 
Q 19.734375 -1.421875 13.25 4.234375 
Q 6.78125 9.90625 6.78125 20.515625 
Q 6.78125 27.484375 10.78125 32.3125 
Q 14.796875 37.15625 21.921875 38.8125 
z
M 18.3125 54.390625 
Q 18.3125 48.734375 21.84375 45.5625 
Q 25.390625 42.390625 31.78125 42.390625 
Q 38.140625 42.390625 41.71875 45.5625 
Q 45.3125 48.734375 45.3125 54.390625 
Q 45.3125 60.0625 41.71875 63.234375 
Q 38.140625 66.40625 31.78125 66.40625 
Q 25.390625 66.40625 21.84375 63.234375 
Q 18.3125 60.0625 18.3125 54.390625 
z
" id="DejaVuSans-56"/>
       <path d="M 8.203125 72.90625 
L 55.078125 72.90625 
L 55.078125 68.703125 
L 28.609375 0 
L 18.3125 0 
L 43.21875 64.59375 
L 8.203125 64.59375 
z
" id="DejaVuSans-55"/>
       <path d="M 11.71875 12.40625 
L 22.015625 12.40625 
L 22.015625 4 
L 14.015625 -11.625 
L 7.71875 -11.625 
L 11.71875 4 
z
" id="DejaVuSans-44"/>
       <path id="DejaVuSans-32"/>
       <path d="M 19.1875 8.296875 
L 53.609375 8.296875 
L 53.609375 0 
L 7.328125 0 
L 7.328125 8.296875 
Q 12.9375 14.109375 22.625 23.890625 
Q 32.328125 33.6875 34.8125 36.53125 
Q 39.546875 41.84375 41.421875 45.53125 
Q 43.3125 49.21875 43.3125 52.78125 
Q 43.3125 58.59375 39.234375 62.25 
Q 35.15625 65.921875 28.609375 65.921875 
Q 23.96875 65.921875 18.8125 64.3125 
Q 13.671875 62.703125 7.8125 59.421875 
L 7.8125 69.390625 
Q 13.765625 71.78125 18.9375 73 
Q 24.125 74.21875 28.421875 74.21875 
Q 39.75 74.21875 46.484375 68.546875 
Q 53.21875 62.890625 53.21875 53.421875 
Q 53.21875 48.921875 51.53125 44.890625 
Q 49.859375 40.875 45.40625 35.40625 
Q 44.1875 33.984375 37.640625 27.21875 
Q 31.109375 20.453125 19.1875 8.296875 
z
" id="DejaVuSans-50"/>
       <path d="M 31.78125 66.40625 
Q 24.171875 66.40625 20.328125 58.90625 
Q 16.5 51.421875 16.5 36.375 
Q 16.5 21.390625 20.328125 13.890625 
Q 24.171875 6.390625 31.78125 6.390625 
Q 39.453125 6.390625 43.28125 13.890625 
Q 47.125 21.390625 47.125 36.375 
Q 47.125 51.421875 43.28125 58.90625 
Q 39.453125 66.40625 31.78125 66.40625 
z
M 31.78125 74.21875 
Q 44.046875 74.21875 50.515625 64.515625 
Q 56.984375 54.828125 56.984375 36.375 
Q 56.984375 17.96875 50.515625 8.265625 
Q 44.046875 -1.421875 31.78125 -1.421875 
Q 19.53125 -1.421875 13.0625 8.265625 
Q 6.59375 17.96875 6.59375 36.375 
Q 6.59375 54.828125 13.0625 64.515625 
Q 19.53125 74.21875 31.78125 74.21875 
z
" id="DejaVuSans-48"/>
       <path d="M 10.796875 72.90625 
L 49.515625 72.90625 
L 49.515625 64.59375 
L 19.828125 64.59375 
L 19.828125 46.734375 
Q 21.96875 47.46875 24.109375 47.828125 
Q 26.265625 48.1875 28.421875 48.1875 
Q 40.625 48.1875 47.75 41.5 
Q 54.890625 34.8125 54.890625 23.390625 
Q 54.890625 11.625 47.5625 5.09375 
Q 40.234375 -1.421875 26.90625 -1.421875 
Q 22.3125 -1.421875 17.546875 -0.640625 
Q 12.796875 0.140625 7.71875 1.703125 
L 7.71875 11.625 
Q 12.109375 9.234375 16.796875 8.0625 
Q 21.484375 6.890625 26.703125 6.890625 
Q 35.15625 6.890625 40.078125 11.328125 
Q 45.015625 15.765625 45.015625 23.390625 
Q 45.015625 31 40.078125 35.4375 
Q 35.15625 39.890625 26.703125 39.890625 
Q 22.75 39.890625 18.8125 39.015625 
Q 14.890625 38.140625 10.796875 36.28125 
z
" id="DejaVuSans-53"/>
       <path d="M 37.796875 64.3125 
L 12.890625 25.390625 
L 37.796875 25.390625 
z
M 35.203125 72.90625 
L 47.609375 72.90625 
L 47.609375 25.390625 
L 58.015625 25.390625 
L 58.015625 17.1875 
L 47.609375 17.1875 
L 47.609375 0 
L 37.796875 0 
L 37.796875 17.1875 
L 4.890625 17.1875 
L 4.890625 26.703125 
z
" id="DejaVuSans-52"/>
       <path d="M 30.421875 75.984375 
L 30.421875 -13.1875 
L 9.71875 -13.1875 
L 9.71875 -6.203125 
L 21.390625 -6.203125 
L 21.390625 69 
L 9.71875 69 
L 9.71875 75.984375 
z
" id="DejaVuSans-93"/>
      </defs>
      <g transform="translate(80.293646 308.404453)rotate(-45)scale(0.1 -0.1)">
       <use xlink:href="#DejaVuSans-40"/>
       <use x="39.013672" xlink:href="#DejaVuSans-49"/>
       <use x="102.636719" xlink:href="#DejaVuSans-56"/>
       <use x="166.259766" xlink:href="#DejaVuSans-55"/>
       <use x="229.882812" xlink:href="#DejaVuSans-44"/>
       <use x="261.669922" xlink:href="#DejaVuSans-32"/>
       <use x="293.457031" xlink:href="#DejaVuSans-50"/>
       <use x="357.080078" xlink:href="#DejaVuSans-48"/>
       <use x="420.703125" xlink:href="#DejaVuSans-53"/>
       <use x="484.326172" xlink:href="#DejaVuSans-52"/>
       <use x="547.949219" xlink:href="#DejaVuSans-93"/>
      </g>
     </g>
    </g>
    <g id="xtick_2">
     <g id="line2d_2">
      <g>
       <use style="stroke:#000000;stroke-width:0.8;" x="169.02524" xlink:href="#m0422601713" y="254.526588"/>
      </g>
     </g>
     <g id="text_2">
      <!-- (2054, 2986] -->
      <defs>
       <path d="M 10.984375 1.515625 
L 10.984375 10.5 
Q 14.703125 8.734375 18.5 7.8125 
Q 22.3125 6.890625 25.984375 6.890625 
Q 35.75 6.890625 40.890625 13.453125 
Q 46.046875 20.015625 46.78125 33.40625 
Q 43.953125 29.203125 39.59375 26.953125 
Q 35.25 24.703125 29.984375 24.703125 
Q 19.046875 24.703125 12.671875 31.3125 
Q 6.296875 37.9375 6.296875 49.421875 
Q 6.296875 60.640625 12.9375 67.421875 
Q 19.578125 74.21875 30.609375 74.21875 
Q 43.265625 74.21875 49.921875 64.515625 
Q 56.59375 54.828125 56.59375 36.375 
Q 56.59375 19.140625 48.40625 8.859375 
Q 40.234375 -1.421875 26.421875 -1.421875 
Q 22.703125 -1.421875 18.890625 -0.6875 
Q 15.09375 0.046875 10.984375 1.515625 
z
M 30.609375 32.421875 
Q 37.25 32.421875 41.125 36.953125 
Q 45.015625 41.5 45.015625 49.421875 
Q 45.015625 57.28125 41.125 61.84375 
Q 37.25 66.40625 30.609375 66.40625 
Q 23.96875 66.40625 20.09375 61.84375 
Q 16.21875 57.28125 16.21875 49.421875 
Q 16.21875 41.5 20.09375 36.953125 
Q 23.96875 32.421875 30.609375 32.421875 
z
" id="DejaVuSans-57"/>
       <path d="M 33.015625 40.375 
Q 26.375 40.375 22.484375 35.828125 
Q 18.609375 31.296875 18.609375 23.390625 
Q 18.609375 15.53125 22.484375 10.953125 
Q 26.375 6.390625 33.015625 6.390625 
Q 39.65625 6.390625 43.53125 10.953125 
Q 47.40625 15.53125 47.40625 23.390625 
Q 47.40625 31.296875 43.53125 35.828125 
Q 39.65625 40.375 33.015625 40.375 
z
M 52.59375 71.296875 
L 52.59375 62.3125 
Q 48.875 64.0625 45.09375 64.984375 
Q 41.3125 65.921875 37.59375 65.921875 
Q 27.828125 65.921875 22.671875 59.328125 
Q 17.53125 52.734375 16.796875 39.40625 
Q 19.671875 43.65625 24.015625 45.921875 
Q 28.375 48.1875 33.59375 48.1875 
Q 44.578125 48.1875 50.953125 41.515625 
Q 57.328125 34.859375 57.328125 23.390625 
Q 57.328125 12.15625 50.6875 5.359375 
Q 44.046875 -1.421875 33.015625 -1.421875 
Q 20.359375 -1.421875 13.671875 8.265625 
Q 6.984375 17.96875 6.984375 36.375 
Q 6.984375 53.65625 15.1875 63.9375 
Q 23.390625 74.21875 37.203125 74.21875 
Q 40.921875 74.21875 44.703125 73.484375 
Q 48.484375 72.75 52.59375 71.296875 
z
" id="DejaVuSans-54"/>
      </defs>
      <g transform="translate(147.974451 312.90342)rotate(-45)scale(0.1 -0.1)">
       <use xlink:href="#DejaVuSans-40"/>
       <use x="39.013672" xlink:href="#DejaVuSans-50"/>
       <use x="102.636719" xlink:href="#DejaVuSans-48"/>
       <use x="166.259766" xlink:href="#DejaVuSans-53"/>
       <use x="229.882812" xlink:href="#DejaVuSans-52"/>
       <use x="293.505859" xlink:href="#DejaVuSans-44"/>
       <use x="325.292969" xlink:href="#DejaVuSans-32"/>
       <use x="357.080078" xlink:href="#DejaVuSans-50"/>
       <use x="420.703125" xlink:href="#DejaVuSans-57"/>
       <use x="484.326172" xlink:href="#DejaVuSans-56"/>
       <use x="547.949219" xlink:href="#DejaVuSans-54"/>
       <use x="611.572266" xlink:href="#DejaVuSans-93"/>
      </g>
     </g>
    </g>
    <g id="xtick_3">
     <g id="line2d_3">
      <g>
       <use style="stroke:#000000;stroke-width:0.8;" x="238.955529" xlink:href="#m0422601713" y="254.526588"/>
      </g>
     </g>
     <g id="text_3">
      <!-- (2986, 4070] -->
      <g transform="translate(217.904739 312.90342)rotate(-45)scale(0.1 -0.1)">
       <use xlink:href="#DejaVuSans-40"/>
       <use x="39.013672" xlink:href="#DejaVuSans-50"/>
       <use x="102.636719" xlink:href="#DejaVuSans-57"/>
       <use x="166.259766" xlink:href="#DejaVuSans-56"/>
       <use x="229.882812" xlink:href="#DejaVuSans-54"/>
       <use x="293.505859" xlink:href="#DejaVuSans-44"/>
       <use x="325.292969" xlink:href="#DejaVuSans-32"/>
       <use x="357.080078" xlink:href="#DejaVuSans-52"/>
       <use x="420.703125" xlink:href="#DejaVuSans-48"/>
       <use x="484.326172" xlink:href="#DejaVuSans-55"/>
       <use x="547.949219" xlink:href="#DejaVuSans-48"/>
       <use x="611.572266" xlink:href="#DejaVuSans-93"/>
      </g>
     </g>
    </g>
    <g id="xtick_4">
     <g id="line2d_4">
      <g>
       <use style="stroke:#000000;stroke-width:0.8;" x="308.885817" xlink:href="#m0422601713" y="254.526588"/>
      </g>
     </g>
     <g id="text_4">
      <!-- (4070, 5024] -->
      <g transform="translate(287.835027 312.90342)rotate(-45)scale(0.1 -0.1)">
       <use xlink:href="#DejaVuSans-40"/>
       <use x="39.013672" xlink:href="#DejaVuSans-52"/>
       <use x="102.636719" xlink:href="#DejaVuSans-48"/>
       <use x="166.259766" xlink:href="#DejaVuSans-55"/>
       <use x="229.882812" xlink:href="#DejaVuSans-48"/>
       <use x="293.505859" xlink:href="#DejaVuSans-44"/>
       <use x="325.292969" xlink:href="#DejaVuSans-32"/>
       <use x="357.080078" xlink:href="#DejaVuSans-53"/>
       <use x="420.703125" xlink:href="#DejaVuSans-48"/>
       <use x="484.326172" xlink:href="#DejaVuSans-50"/>
       <use x="547.949219" xlink:href="#DejaVuSans-52"/>
       <use x="611.572266" xlink:href="#DejaVuSans-93"/>
      </g>
     </g>
    </g>
    <g id="xtick_5">
     <g id="line2d_5">
      <g>
       <use style="stroke:#000000;stroke-width:0.8;" x="378.816106" xlink:href="#m0422601713" y="254.526588"/>
      </g>
     </g>
     <g id="text_5">
      <!-- (5024, 6172] -->
      <g transform="translate(357.765316 312.90342)rotate(-45)scale(0.1 -0.1)">
       <use xlink:href="#DejaVuSans-40"/>
       <use x="39.013672" xlink:href="#DejaVuSans-53"/>
       <use x="102.636719" xlink:href="#DejaVuSans-48"/>
       <use x="166.259766" xlink:href="#DejaVuSans-50"/>
       <use x="229.882812" xlink:href="#DejaVuSans-52"/>
       <use x="293.505859" xlink:href="#DejaVuSans-44"/>
       <use x="325.292969" xlink:href="#DejaVuSans-32"/>
       <use x="357.080078" xlink:href="#DejaVuSans-54"/>
       <use x="420.703125" xlink:href="#DejaVuSans-49"/>
       <use x="484.326172" xlink:href="#DejaVuSans-55"/>
       <use x="547.949219" xlink:href="#DejaVuSans-50"/>
       <use x="611.572266" xlink:href="#DejaVuSans-93"/>
      </g>
     </g>
    </g>
    <g id="xtick_6">
     <g id="line2d_6">
      <g>
       <use style="stroke:#000000;stroke-width:0.8;" x="448.746394" xlink:href="#m0422601713" y="254.526588"/>
      </g>
     </g>
     <g id="text_6">
      <!-- (6172, 7339] -->
      <defs>
       <path d="M 40.578125 39.3125 
Q 47.65625 37.796875 51.625 33 
Q 55.609375 28.21875 55.609375 21.1875 
Q 55.609375 10.40625 48.1875 4.484375 
Q 40.765625 -1.421875 27.09375 -1.421875 
Q 22.515625 -1.421875 17.65625 -0.515625 
Q 12.796875 0.390625 7.625 2.203125 
L 7.625 11.71875 
Q 11.71875 9.328125 16.59375 8.109375 
Q 21.484375 6.890625 26.8125 6.890625 
Q 36.078125 6.890625 40.9375 10.546875 
Q 45.796875 14.203125 45.796875 21.1875 
Q 45.796875 27.640625 41.28125 31.265625 
Q 36.765625 34.90625 28.71875 34.90625 
L 20.21875 34.90625 
L 20.21875 43.015625 
L 29.109375 43.015625 
Q 36.375 43.015625 40.234375 45.921875 
Q 44.09375 48.828125 44.09375 54.296875 
Q 44.09375 59.90625 40.109375 62.90625 
Q 36.140625 65.921875 28.71875 65.921875 
Q 24.65625 65.921875 20.015625 65.03125 
Q 15.375 64.15625 9.8125 62.3125 
L 9.8125 71.09375 
Q 15.4375 72.65625 20.34375 73.4375 
Q 25.25 74.21875 29.59375 74.21875 
Q 40.828125 74.21875 47.359375 69.109375 
Q 53.90625 64.015625 53.90625 55.328125 
Q 53.90625 49.265625 50.4375 45.09375 
Q 46.96875 40.921875 40.578125 39.3125 
z
" id="DejaVuSans-51"/>
      </defs>
      <g transform="translate(427.695604 312.90342)rotate(-45)scale(0.1 -0.1)">
       <use xlink:href="#DejaVuSans-40"/>
       <use x="39.013672" xlink:href="#DejaVuSans-54"/>
       <use x="102.636719" xlink:href="#DejaVuSans-49"/>
       <use x="166.259766" xlink:href="#DejaVuSans-55"/>
       <use x="229.882812" xlink:href="#DejaVuSans-50"/>
       <use x="293.505859" xlink:href="#DejaVuSans-44"/>
       <use x="325.292969" xlink:href="#DejaVuSans-32"/>
       <use x="357.080078" xlink:href="#DejaVuSans-55"/>
       <use x="420.703125" xlink:href="#DejaVuSans-51"/>
       <use x="484.326172" xlink:href="#DejaVuSans-51"/>
       <use x="547.949219" xlink:href="#DejaVuSans-57"/>
       <use x="611.572266" xlink:href="#DejaVuSans-93"/>
      </g>
     </g>
    </g>
    <g id="xtick_7">
     <g id="line2d_7">
      <g>
       <use style="stroke:#000000;stroke-width:0.8;" x="518.676683" xlink:href="#m0422601713" y="254.526588"/>
      </g>
     </g>
     <g id="text_7">
      <!-- (7339, 9709] -->
      <g transform="translate(497.625893 312.90342)rotate(-45)scale(0.1 -0.1)">
       <use xlink:href="#DejaVuSans-40"/>
       <use x="39.013672" xlink:href="#DejaVuSans-55"/>
       <use x="102.636719" xlink:href="#DejaVuSans-51"/>
       <use x="166.259766" xlink:href="#DejaVuSans-51"/>
       <use x="229.882812" xlink:href="#DejaVuSans-57"/>
       <use x="293.505859" xlink:href="#DejaVuSans-44"/>
       <use x="325.292969" xlink:href="#DejaVuSans-32"/>
       <use x="357.080078" xlink:href="#DejaVuSans-57"/>
       <use x="420.703125" xlink:href="#DejaVuSans-55"/>
       <use x="484.326172" xlink:href="#DejaVuSans-48"/>
       <use x="547.949219" xlink:href="#DejaVuSans-57"/>
       <use x="611.572266" xlink:href="#DejaVuSans-93"/>
      </g>
     </g>
    </g>
    <g id="xtick_8">
     <g id="line2d_8">
      <g>
       <use style="stroke:#000000;stroke-width:0.8;" x="588.606971" xlink:href="#m0422601713" y="254.526588"/>
      </g>
     </g>
     <g id="text_8">
      <!-- (9709, 12846] -->
      <g transform="translate(565.306698 317.402387)rotate(-45)scale(0.1 -0.1)">
       <use xlink:href="#DejaVuSans-40"/>
       <use x="39.013672" xlink:href="#DejaVuSans-57"/>
       <use x="102.636719" xlink:href="#DejaVuSans-55"/>
       <use x="166.259766" xlink:href="#DejaVuSans-48"/>
       <use x="229.882812" xlink:href="#DejaVuSans-57"/>
       <use x="293.505859" xlink:href="#DejaVuSans-44"/>
       <use x="325.292969" xlink:href="#DejaVuSans-32"/>
       <use x="357.080078" xlink:href="#DejaVuSans-49"/>
       <use x="420.703125" xlink:href="#DejaVuSans-50"/>
       <use x="484.326172" xlink:href="#DejaVuSans-56"/>
       <use x="547.949219" xlink:href="#DejaVuSans-52"/>
       <use x="611.572266" xlink:href="#DejaVuSans-54"/>
       <use x="675.195312" xlink:href="#DejaVuSans-93"/>
      </g>
     </g>
    </g>
    <g id="xtick_9">
     <g id="line2d_9">
      <g>
       <use style="stroke:#000000;stroke-width:0.8;" x="658.53726" xlink:href="#m0422601713" y="254.526588"/>
      </g>
     </g>
     <g id="text_9">
      <!-- (12846, 19257] -->
      <g transform="translate(632.987503 321.901354)rotate(-45)scale(0.1 -0.1)">
       <use xlink:href="#DejaVuSans-40"/>
       <use x="39.013672" xlink:href="#DejaVuSans-49"/>
       <use x="102.636719" xlink:href="#DejaVuSans-50"/>
       <use x="166.259766" xlink:href="#DejaVuSans-56"/>
       <use x="229.882812" xlink:href="#DejaVuSans-52"/>
       <use x="293.505859" xlink:href="#DejaVuSans-54"/>
       <use x="357.128906" xlink:href="#DejaVuSans-44"/>
       <use x="388.916016" xlink:href="#DejaVuSans-32"/>
       <use x="420.703125" xlink:href="#DejaVuSans-49"/>
       <use x="484.326172" xlink:href="#DejaVuSans-57"/>
       <use x="547.949219" xlink:href="#DejaVuSans-50"/>
       <use x="611.572266" xlink:href="#DejaVuSans-53"/>
       <use x="675.195312" xlink:href="#DejaVuSans-55"/>
       <use x="738.818359" xlink:href="#DejaVuSans-93"/>
      </g>
     </g>
    </g>
    <g id="xtick_10">
     <g id="line2d_10">
      <g>
       <use style="stroke:#000000;stroke-width:0.8;" x="728.467548" xlink:href="#m0422601713" y="254.526588"/>
      </g>
     </g>
     <g id="text_10">
      <!-- (19257, 88269] -->
      <g transform="translate(702.917791 321.901354)rotate(-45)scale(0.1 -0.1)">
       <use xlink:href="#DejaVuSans-40"/>
       <use x="39.013672" xlink:href="#DejaVuSans-49"/>
       <use x="102.636719" xlink:href="#DejaVuSans-57"/>
       <use x="166.259766" xlink:href="#DejaVuSans-50"/>
       <use x="229.882812" xlink:href="#DejaVuSans-53"/>
       <use x="293.505859" xlink:href="#DejaVuSans-55"/>
       <use x="357.128906" xlink:href="#DejaVuSans-44"/>
       <use x="388.916016" xlink:href="#DejaVuSans-32"/>
       <use x="420.703125" xlink:href="#DejaVuSans-56"/>
       <use x="484.326172" xlink:href="#DejaVuSans-56"/>
       <use x="547.949219" xlink:href="#DejaVuSans-50"/>
       <use x="611.572266" xlink:href="#DejaVuSans-54"/>
       <use x="675.195312" xlink:href="#DejaVuSans-57"/>
       <use x="738.818359" xlink:href="#DejaVuSans-93"/>
      </g>
     </g>
    </g>
    <g id="text_11">
     <!-- Text length as word count (10 equal-sized buckets) -->
     <defs>
      <path d="M -0.296875 72.90625 
L 61.375 72.90625 
L 61.375 64.59375 
L 35.5 64.59375 
L 35.5 0 
L 25.59375 0 
L 25.59375 64.59375 
L -0.296875 64.59375 
z
" id="DejaVuSans-84"/>
      <path d="M 56.203125 29.59375 
L 56.203125 25.203125 
L 14.890625 25.203125 
Q 15.484375 15.921875 20.484375 11.0625 
Q 25.484375 6.203125 34.421875 6.203125 
Q 39.59375 6.203125 44.453125 7.46875 
Q 49.3125 8.734375 54.109375 11.28125 
L 54.109375 2.78125 
Q 49.265625 0.734375 44.1875 -0.34375 
Q 39.109375 -1.421875 33.890625 -1.421875 
Q 20.796875 -1.421875 13.15625 6.1875 
Q 5.515625 13.8125 5.515625 26.8125 
Q 5.515625 40.234375 12.765625 48.109375 
Q 20.015625 56 32.328125 56 
Q 43.359375 56 49.78125 48.890625 
Q 56.203125 41.796875 56.203125 29.59375 
z
M 47.21875 32.234375 
Q 47.125 39.59375 43.09375 43.984375 
Q 39.0625 48.390625 32.421875 48.390625 
Q 24.90625 48.390625 20.390625 44.140625 
Q 15.875 39.890625 15.1875 32.171875 
z
" id="DejaVuSans-101"/>
      <path d="M 54.890625 54.6875 
L 35.109375 28.078125 
L 55.90625 0 
L 45.3125 0 
L 29.390625 21.484375 
L 13.484375 0 
L 2.875 0 
L 24.125 28.609375 
L 4.6875 54.6875 
L 15.28125 54.6875 
L 29.78125 35.203125 
L 44.28125 54.6875 
z
" id="DejaVuSans-120"/>
      <path d="M 18.3125 70.21875 
L 18.3125 54.6875 
L 36.8125 54.6875 
L 36.8125 47.703125 
L 18.3125 47.703125 
L 18.3125 18.015625 
Q 18.3125 11.328125 20.140625 9.421875 
Q 21.96875 7.515625 27.59375 7.515625 
L 36.8125 7.515625 
L 36.8125 0 
L 27.59375 0 
Q 17.1875 0 13.234375 3.875 
Q 9.28125 7.765625 9.28125 18.015625 
L 9.28125 47.703125 
L 2.6875 47.703125 
L 2.6875 54.6875 
L 9.28125 54.6875 
L 9.28125 70.21875 
z
" id="DejaVuSans-116"/>
      <path d="M 9.421875 75.984375 
L 18.40625 75.984375 
L 18.40625 0 
L 9.421875 0 
z
" id="DejaVuSans-108"/>
      <path d="M 54.890625 33.015625 
L 54.890625 0 
L 45.90625 0 
L 45.90625 32.71875 
Q 45.90625 40.484375 42.875 44.328125 
Q 39.84375 48.1875 33.796875 48.1875 
Q 26.515625 48.1875 22.3125 43.546875 
Q 18.109375 38.921875 18.109375 30.90625 
L 18.109375 0 
L 9.078125 0 
L 9.078125 54.6875 
L 18.109375 54.6875 
L 18.109375 46.1875 
Q 21.34375 51.125 25.703125 53.5625 
Q 30.078125 56 35.796875 56 
Q 45.21875 56 50.046875 50.171875 
Q 54.890625 44.34375 54.890625 33.015625 
z
" id="DejaVuSans-110"/>
      <path d="M 45.40625 27.984375 
Q 45.40625 37.75 41.375 43.109375 
Q 37.359375 48.484375 30.078125 48.484375 
Q 22.859375 48.484375 18.828125 43.109375 
Q 14.796875 37.75 14.796875 27.984375 
Q 14.796875 18.265625 18.828125 12.890625 
Q 22.859375 7.515625 30.078125 7.515625 
Q 37.359375 7.515625 41.375 12.890625 
Q 45.40625 18.265625 45.40625 27.984375 
z
M 54.390625 6.78125 
Q 54.390625 -7.171875 48.1875 -13.984375 
Q 42 -20.796875 29.203125 -20.796875 
Q 24.46875 -20.796875 20.265625 -20.09375 
Q 16.0625 -19.390625 12.109375 -17.921875 
L 12.109375 -9.1875 
Q 16.0625 -11.328125 19.921875 -12.34375 
Q 23.78125 -13.375 27.78125 -13.375 
Q 36.625 -13.375 41.015625 -8.765625 
Q 45.40625 -4.15625 45.40625 5.171875 
L 45.40625 9.625 
Q 42.625 4.78125 38.28125 2.390625 
Q 33.9375 0 27.875 0 
Q 17.828125 0 11.671875 7.65625 
Q 5.515625 15.328125 5.515625 27.984375 
Q 5.515625 40.671875 11.671875 48.328125 
Q 17.828125 56 27.875 56 
Q 33.9375 56 38.28125 53.609375 
Q 42.625 51.21875 45.40625 46.390625 
L 45.40625 54.6875 
L 54.390625 54.6875 
z
" id="DejaVuSans-103"/>
      <path d="M 54.890625 33.015625 
L 54.890625 0 
L 45.90625 0 
L 45.90625 32.71875 
Q 45.90625 40.484375 42.875 44.328125 
Q 39.84375 48.1875 33.796875 48.1875 
Q 26.515625 48.1875 22.3125 43.546875 
Q 18.109375 38.921875 18.109375 30.90625 
L 18.109375 0 
L 9.078125 0 
L 9.078125 75.984375 
L 18.109375 75.984375 
L 18.109375 46.1875 
Q 21.34375 51.125 25.703125 53.5625 
Q 30.078125 56 35.796875 56 
Q 45.21875 56 50.046875 50.171875 
Q 54.890625 44.34375 54.890625 33.015625 
z
" id="DejaVuSans-104"/>
      <path d="M 34.28125 27.484375 
Q 23.390625 27.484375 19.1875 25 
Q 14.984375 22.515625 14.984375 16.5 
Q 14.984375 11.71875 18.140625 8.90625 
Q 21.296875 6.109375 26.703125 6.109375 
Q 34.1875 6.109375 38.703125 11.40625 
Q 43.21875 16.703125 43.21875 25.484375 
L 43.21875 27.484375 
z
M 52.203125 31.203125 
L 52.203125 0 
L 43.21875 0 
L 43.21875 8.296875 
Q 40.140625 3.328125 35.546875 0.953125 
Q 30.953125 -1.421875 24.3125 -1.421875 
Q 15.921875 -1.421875 10.953125 3.296875 
Q 6 8.015625 6 15.921875 
Q 6 25.140625 12.171875 29.828125 
Q 18.359375 34.515625 30.609375 34.515625 
L 43.21875 34.515625 
L 43.21875 35.40625 
Q 43.21875 41.609375 39.140625 45 
Q 35.0625 48.390625 27.6875 48.390625 
Q 23 48.390625 18.546875 47.265625 
Q 14.109375 46.140625 10.015625 43.890625 
L 10.015625 52.203125 
Q 14.9375 54.109375 19.578125 55.046875 
Q 24.21875 56 28.609375 56 
Q 40.484375 56 46.34375 49.84375 
Q 52.203125 43.703125 52.203125 31.203125 
z
" id="DejaVuSans-97"/>
      <path d="M 44.28125 53.078125 
L 44.28125 44.578125 
Q 40.484375 46.53125 36.375 47.5 
Q 32.28125 48.484375 27.875 48.484375 
Q 21.1875 48.484375 17.84375 46.4375 
Q 14.5 44.390625 14.5 40.28125 
Q 14.5 37.15625 16.890625 35.375 
Q 19.28125 33.59375 26.515625 31.984375 
L 29.59375 31.296875 
Q 39.15625 29.25 43.1875 25.515625 
Q 47.21875 21.78125 47.21875 15.09375 
Q 47.21875 7.46875 41.1875 3.015625 
Q 35.15625 -1.421875 24.609375 -1.421875 
Q 20.21875 -1.421875 15.453125 -0.5625 
Q 10.6875 0.296875 5.421875 2 
L 5.421875 11.28125 
Q 10.40625 8.6875 15.234375 7.390625 
Q 20.0625 6.109375 24.8125 6.109375 
Q 31.15625 6.109375 34.5625 8.28125 
Q 37.984375 10.453125 37.984375 14.40625 
Q 37.984375 18.0625 35.515625 20.015625 
Q 33.0625 21.96875 24.703125 23.78125 
L 21.578125 24.515625 
Q 13.234375 26.265625 9.515625 29.90625 
Q 5.8125 33.546875 5.8125 39.890625 
Q 5.8125 47.609375 11.28125 51.796875 
Q 16.75 56 26.8125 56 
Q 31.78125 56 36.171875 55.265625 
Q 40.578125 54.546875 44.28125 53.078125 
z
" id="DejaVuSans-115"/>
      <path d="M 4.203125 54.6875 
L 13.1875 54.6875 
L 24.421875 12.015625 
L 35.59375 54.6875 
L 46.1875 54.6875 
L 57.421875 12.015625 
L 68.609375 54.6875 
L 77.59375 54.6875 
L 63.28125 0 
L 52.6875 0 
L 40.921875 44.828125 
L 29.109375 0 
L 18.5 0 
z
" id="DejaVuSans-119"/>
      <path d="M 30.609375 48.390625 
Q 23.390625 48.390625 19.1875 42.75 
Q 14.984375 37.109375 14.984375 27.296875 
Q 14.984375 17.484375 19.15625 11.84375 
Q 23.34375 6.203125 30.609375 6.203125 
Q 37.796875 6.203125 41.984375 11.859375 
Q 46.1875 17.53125 46.1875 27.296875 
Q 46.1875 37.015625 41.984375 42.703125 
Q 37.796875 48.390625 30.609375 48.390625 
z
M 30.609375 56 
Q 42.328125 56 49.015625 48.375 
Q 55.71875 40.765625 55.71875 27.296875 
Q 55.71875 13.875 49.015625 6.21875 
Q 42.328125 -1.421875 30.609375 -1.421875 
Q 18.84375 -1.421875 12.171875 6.21875 
Q 5.515625 13.875 5.515625 27.296875 
Q 5.515625 40.765625 12.171875 48.375 
Q 18.84375 56 30.609375 56 
z
" id="DejaVuSans-111"/>
      <path d="M 41.109375 46.296875 
Q 39.59375 47.171875 37.8125 47.578125 
Q 36.03125 48 33.890625 48 
Q 26.265625 48 22.1875 43.046875 
Q 18.109375 38.09375 18.109375 28.8125 
L 18.109375 0 
L 9.078125 0 
L 9.078125 54.6875 
L 18.109375 54.6875 
L 18.109375 46.1875 
Q 20.953125 51.171875 25.484375 53.578125 
Q 30.03125 56 36.53125 56 
Q 37.453125 56 38.578125 55.875 
Q 39.703125 55.765625 41.0625 55.515625 
z
" id="DejaVuSans-114"/>
      <path d="M 45.40625 46.390625 
L 45.40625 75.984375 
L 54.390625 75.984375 
L 54.390625 0 
L 45.40625 0 
L 45.40625 8.203125 
Q 42.578125 3.328125 38.25 0.953125 
Q 33.9375 -1.421875 27.875 -1.421875 
Q 17.96875 -1.421875 11.734375 6.484375 
Q 5.515625 14.40625 5.515625 27.296875 
Q 5.515625 40.1875 11.734375 48.09375 
Q 17.96875 56 27.875 56 
Q 33.9375 56 38.25 53.625 
Q 42.578125 51.265625 45.40625 46.390625 
z
M 14.796875 27.296875 
Q 14.796875 17.390625 18.875 11.75 
Q 22.953125 6.109375 30.078125 6.109375 
Q 37.203125 6.109375 41.296875 11.75 
Q 45.40625 17.390625 45.40625 27.296875 
Q 45.40625 37.203125 41.296875 42.84375 
Q 37.203125 48.484375 30.078125 48.484375 
Q 22.953125 48.484375 18.875 42.84375 
Q 14.796875 37.203125 14.796875 27.296875 
z
" id="DejaVuSans-100"/>
      <path d="M 48.78125 52.59375 
L 48.78125 44.1875 
Q 44.96875 46.296875 41.140625 47.34375 
Q 37.3125 48.390625 33.40625 48.390625 
Q 24.65625 48.390625 19.8125 42.84375 
Q 14.984375 37.3125 14.984375 27.296875 
Q 14.984375 17.28125 19.8125 11.734375 
Q 24.65625 6.203125 33.40625 6.203125 
Q 37.3125 6.203125 41.140625 7.25 
Q 44.96875 8.296875 48.78125 10.40625 
L 48.78125 2.09375 
Q 45.015625 0.34375 40.984375 -0.53125 
Q 36.96875 -1.421875 32.421875 -1.421875 
Q 20.0625 -1.421875 12.78125 6.34375 
Q 5.515625 14.109375 5.515625 27.296875 
Q 5.515625 40.671875 12.859375 48.328125 
Q 20.21875 56 33.015625 56 
Q 37.15625 56 41.109375 55.140625 
Q 45.0625 54.296875 48.78125 52.59375 
z
" id="DejaVuSans-99"/>
      <path d="M 8.5 21.578125 
L 8.5 54.6875 
L 17.484375 54.6875 
L 17.484375 21.921875 
Q 17.484375 14.15625 20.5 10.265625 
Q 23.53125 6.390625 29.59375 6.390625 
Q 36.859375 6.390625 41.078125 11.03125 
Q 45.3125 15.671875 45.3125 23.6875 
L 45.3125 54.6875 
L 54.296875 54.6875 
L 54.296875 0 
L 45.3125 0 
L 45.3125 8.40625 
Q 42.046875 3.421875 37.71875 1 
Q 33.40625 -1.421875 27.6875 -1.421875 
Q 18.265625 -1.421875 13.375 4.4375 
Q 8.5 10.296875 8.5 21.578125 
z
M 31.109375 56 
z
" id="DejaVuSans-117"/>
      <path d="M 14.796875 27.296875 
Q 14.796875 17.390625 18.875 11.75 
Q 22.953125 6.109375 30.078125 6.109375 
Q 37.203125 6.109375 41.296875 11.75 
Q 45.40625 17.390625 45.40625 27.296875 
Q 45.40625 37.203125 41.296875 42.84375 
Q 37.203125 48.484375 30.078125 48.484375 
Q 22.953125 48.484375 18.875 42.84375 
Q 14.796875 37.203125 14.796875 27.296875 
z
M 45.40625 8.203125 
Q 42.578125 3.328125 38.25 0.953125 
Q 33.9375 -1.421875 27.875 -1.421875 
Q 17.96875 -1.421875 11.734375 6.484375 
Q 5.515625 14.40625 5.515625 27.296875 
Q 5.515625 40.1875 11.734375 48.09375 
Q 17.96875 56 27.875 56 
Q 33.9375 56 38.25 53.625 
Q 42.578125 51.265625 45.40625 46.390625 
L 45.40625 54.6875 
L 54.390625 54.6875 
L 54.390625 -20.796875 
L 45.40625 -20.796875 
z
" id="DejaVuSans-113"/>
      <path d="M 4.890625 31.390625 
L 31.203125 31.390625 
L 31.203125 23.390625 
L 4.890625 23.390625 
z
" id="DejaVuSans-45"/>
      <path d="M 9.421875 54.6875 
L 18.40625 54.6875 
L 18.40625 0 
L 9.421875 0 
z
M 9.421875 75.984375 
L 18.40625 75.984375 
L 18.40625 64.59375 
L 9.421875 64.59375 
z
" id="DejaVuSans-105"/>
      <path d="M 5.515625 54.6875 
L 48.1875 54.6875 
L 48.1875 46.484375 
L 14.40625 7.171875 
L 48.1875 7.171875 
L 48.1875 0 
L 4.296875 0 
L 4.296875 8.203125 
L 38.09375 47.515625 
L 5.515625 47.515625 
z
" id="DejaVuSans-122"/>
      <path d="M 48.6875 27.296875 
Q 48.6875 37.203125 44.609375 42.84375 
Q 40.53125 48.484375 33.40625 48.484375 
Q 26.265625 48.484375 22.1875 42.84375 
Q 18.109375 37.203125 18.109375 27.296875 
Q 18.109375 17.390625 22.1875 11.75 
Q 26.265625 6.109375 33.40625 6.109375 
Q 40.53125 6.109375 44.609375 11.75 
Q 48.6875 17.390625 48.6875 27.296875 
z
M 18.109375 46.390625 
Q 20.953125 51.265625 25.265625 53.625 
Q 29.59375 56 35.59375 56 
Q 45.5625 56 51.78125 48.09375 
Q 58.015625 40.1875 58.015625 27.296875 
Q 58.015625 14.40625 51.78125 6.484375 
Q 45.5625 -1.421875 35.59375 -1.421875 
Q 29.59375 -1.421875 25.265625 0.953125 
Q 20.953125 3.328125 18.109375 8.203125 
L 18.109375 0 
L 9.078125 0 
L 9.078125 75.984375 
L 18.109375 75.984375 
z
" id="DejaVuSans-98"/>
      <path d="M 9.078125 75.984375 
L 18.109375 75.984375 
L 18.109375 31.109375 
L 44.921875 54.6875 
L 56.390625 54.6875 
L 27.390625 29.109375 
L 57.625 0 
L 45.90625 0 
L 18.109375 26.703125 
L 18.109375 0 
L 9.078125 0 
z
" id="DejaVuSans-107"/>
      <path d="M 8.015625 75.875 
L 15.828125 75.875 
Q 23.140625 64.359375 26.78125 53.3125 
Q 30.421875 42.28125 30.421875 31.390625 
Q 30.421875 20.453125 26.78125 9.375 
Q 23.140625 -1.703125 15.828125 -13.1875 
L 8.015625 -13.1875 
Q 14.5 -2 17.703125 9.0625 
Q 20.90625 20.125 20.90625 31.390625 
Q 20.90625 42.671875 17.703125 53.65625 
Q 14.5 64.65625 8.015625 75.875 
z
" id="DejaVuSans-41"/>
     </defs>
     <g transform="translate(286.285156 334.970352)scale(0.1 -0.1)">
      <use xlink:href="#DejaVuSans-84"/>
      <use x="44.083984" xlink:href="#DejaVuSans-101"/>
      <use x="103.857422" xlink:href="#DejaVuSans-120"/>
      <use x="163.037109" xlink:href="#DejaVuSans-116"/>
      <use x="202.246094" xlink:href="#DejaVuSans-32"/>
      <use x="234.033203" xlink:href="#DejaVuSans-108"/>
      <use x="261.816406" xlink:href="#DejaVuSans-101"/>
      <use x="323.339844" xlink:href="#DejaVuSans-110"/>
      <use x="386.71875" xlink:href="#DejaVuSans-103"/>
      <use x="450.195312" xlink:href="#DejaVuSans-116"/>
      <use x="489.404297" xlink:href="#DejaVuSans-104"/>
      <use x="552.783203" xlink:href="#DejaVuSans-32"/>
      <use x="584.570312" xlink:href="#DejaVuSans-97"/>
      <use x="645.849609" xlink:href="#DejaVuSans-115"/>
      <use x="697.949219" xlink:href="#DejaVuSans-32"/>
      <use x="729.736328" xlink:href="#DejaVuSans-119"/>
      <use x="811.523438" xlink:href="#DejaVuSans-111"/>
      <use x="872.705078" xlink:href="#DejaVuSans-114"/>
      <use x="912.068359" xlink:href="#DejaVuSans-100"/>
      <use x="975.544922" xlink:href="#DejaVuSans-32"/>
      <use x="1007.332031" xlink:href="#DejaVuSans-99"/>
      <use x="1062.3125" xlink:href="#DejaVuSans-111"/>
      <use x="1123.494141" xlink:href="#DejaVuSans-117"/>
      <use x="1186.873047" xlink:href="#DejaVuSans-110"/>
      <use x="1250.251953" xlink:href="#DejaVuSans-116"/>
      <use x="1289.460938" xlink:href="#DejaVuSans-32"/>
      <use x="1321.248047" xlink:href="#DejaVuSans-40"/>
      <use x="1360.261719" xlink:href="#DejaVuSans-49"/>
      <use x="1423.884766" xlink:href="#DejaVuSans-48"/>
      <use x="1487.507812" xlink:href="#DejaVuSans-32"/>
      <use x="1519.294922" xlink:href="#DejaVuSans-101"/>
      <use x="1580.818359" xlink:href="#DejaVuSans-113"/>
      <use x="1644.294922" xlink:href="#DejaVuSans-117"/>
      <use x="1707.673828" xlink:href="#DejaVuSans-97"/>
      <use x="1768.953125" xlink:href="#DejaVuSans-108"/>
      <use x="1796.736328" xlink:href="#DejaVuSans-45"/>
      <use x="1832.820312" xlink:href="#DejaVuSans-115"/>
      <use x="1884.919922" xlink:href="#DejaVuSans-105"/>
      <use x="1912.703125" xlink:href="#DejaVuSans-122"/>
      <use x="1965.193359" xlink:href="#DejaVuSans-101"/>
      <use x="2026.716797" xlink:href="#DejaVuSans-100"/>
      <use x="2090.193359" xlink:href="#DejaVuSans-32"/>
      <use x="2121.980469" xlink:href="#DejaVuSans-98"/>
      <use x="2185.457031" xlink:href="#DejaVuSans-117"/>
      <use x="2248.835938" xlink:href="#DejaVuSans-99"/>
      <use x="2303.816406" xlink:href="#DejaVuSans-107"/>
      <use x="2358.101562" xlink:href="#DejaVuSans-101"/>
      <use x="2419.625" xlink:href="#DejaVuSans-116"/>
      <use x="2458.833984" xlink:href="#DejaVuSans-115"/>
      <use x="2510.933594" xlink:href="#DejaVuSans-41"/>
     </g>
    </g>
   </g>
   <g id="matplotlib.axis_2">
    <g id="ytick_1">
     <g id="line2d_11">
      <path clip-path="url(#p7709db4e5e)" d="M 50.14375 254.526588 
L 777.41875 254.526588 
" style="fill:none;stroke:#808080;stroke-dasharray:2.96,1.28;stroke-dashoffset:0;stroke-width:0.8;"/>
     </g>
     <g id="line2d_12">
      <defs>
       <path d="M 0 0 
L -3.5 0 
" id="m5fe96bbf58" style="stroke:#000000;stroke-width:0.8;"/>
      </defs>
      <g>
       <use style="stroke:#000000;stroke-width:0.8;" x="50.14375" xlink:href="#m5fe96bbf58" y="254.526588"/>
      </g>
     </g>
     <g id="text_12">
      <!-- 0.00 -->
      <defs>
       <path d="M 10.6875 12.40625 
L 21 12.40625 
L 21 0 
L 10.6875 0 
z
" id="DejaVuSans-46"/>
      </defs>
      <g transform="translate(20.878125 258.325807)scale(0.1 -0.1)">
       <use xlink:href="#DejaVuSans-48"/>
       <use x="63.623047" xlink:href="#DejaVuSans-46"/>
       <use x="95.410156" xlink:href="#DejaVuSans-48"/>
       <use x="159.033203" xlink:href="#DejaVuSans-48"/>
      </g>
     </g>
    </g>
    <g id="ytick_2">
     <g id="line2d_13">
      <path clip-path="url(#p7709db4e5e)" d="M 50.14375 225.716027 
L 777.41875 225.716027 
" style="fill:none;stroke:#808080;stroke-dasharray:2.96,1.28;stroke-dashoffset:0;stroke-width:0.8;"/>
     </g>
     <g id="line2d_14">
      <g>
       <use style="stroke:#000000;stroke-width:0.8;" x="50.14375" xlink:href="#m5fe96bbf58" y="225.716027"/>
      </g>
     </g>
     <g id="text_13">
      <!-- 0.01 -->
      <g transform="translate(20.878125 229.515246)scale(0.1 -0.1)">
       <use xlink:href="#DejaVuSans-48"/>
       <use x="63.623047" xlink:href="#DejaVuSans-46"/>
       <use x="95.410156" xlink:href="#DejaVuSans-48"/>
       <use x="159.033203" xlink:href="#DejaVuSans-49"/>
      </g>
     </g>
    </g>
    <g id="ytick_3">
     <g id="line2d_15">
      <path clip-path="url(#p7709db4e5e)" d="M 50.14375 196.905466 
L 777.41875 196.905466 
" style="fill:none;stroke:#808080;stroke-dasharray:2.96,1.28;stroke-dashoffset:0;stroke-width:0.8;"/>
     </g>
     <g id="line2d_16">
      <g>
       <use style="stroke:#000000;stroke-width:0.8;" x="50.14375" xlink:href="#m5fe96bbf58" y="196.905466"/>
      </g>
     </g>
     <g id="text_14">
      <!-- 0.02 -->
      <g transform="translate(20.878125 200.704685)scale(0.1 -0.1)">
       <use xlink:href="#DejaVuSans-48"/>
       <use x="63.623047" xlink:href="#DejaVuSans-46"/>
       <use x="95.410156" xlink:href="#DejaVuSans-48"/>
       <use x="159.033203" xlink:href="#DejaVuSans-50"/>
      </g>
     </g>
    </g>
    <g id="ytick_4">
     <g id="line2d_17">
      <path clip-path="url(#p7709db4e5e)" d="M 50.14375 168.094905 
L 777.41875 168.094905 
" style="fill:none;stroke:#808080;stroke-dasharray:2.96,1.28;stroke-dashoffset:0;stroke-width:0.8;"/>
     </g>
     <g id="line2d_18">
      <g>
       <use style="stroke:#000000;stroke-width:0.8;" x="50.14375" xlink:href="#m5fe96bbf58" y="168.094905"/>
      </g>
     </g>
     <g id="text_15">
      <!-- 0.03 -->
      <g transform="translate(20.878125 171.894124)scale(0.1 -0.1)">
       <use xlink:href="#DejaVuSans-48"/>
       <use x="63.623047" xlink:href="#DejaVuSans-46"/>
       <use x="95.410156" xlink:href="#DejaVuSans-48"/>
       <use x="159.033203" xlink:href="#DejaVuSans-51"/>
      </g>
     </g>
    </g>
    <g id="ytick_5">
     <g id="line2d_19">
      <path clip-path="url(#p7709db4e5e)" d="M 50.14375 139.284344 
L 777.41875 139.284344 
" style="fill:none;stroke:#808080;stroke-dasharray:2.96,1.28;stroke-dashoffset:0;stroke-width:0.8;"/>
     </g>
     <g id="line2d_20">
      <g>
       <use style="stroke:#000000;stroke-width:0.8;" x="50.14375" xlink:href="#m5fe96bbf58" y="139.284344"/>
      </g>
     </g>
     <g id="text_16">
      <!-- 0.04 -->
      <g transform="translate(20.878125 143.083563)scale(0.1 -0.1)">
       <use xlink:href="#DejaVuSans-48"/>
       <use x="63.623047" xlink:href="#DejaVuSans-46"/>
       <use x="95.410156" xlink:href="#DejaVuSans-48"/>
       <use x="159.033203" xlink:href="#DejaVuSans-52"/>
      </g>
     </g>
    </g>
    <g id="ytick_6">
     <g id="line2d_21">
      <path clip-path="url(#p7709db4e5e)" d="M 50.14375 110.473783 
L 777.41875 110.473783 
" style="fill:none;stroke:#808080;stroke-dasharray:2.96,1.28;stroke-dashoffset:0;stroke-width:0.8;"/>
     </g>
     <g id="line2d_22">
      <g>
       <use style="stroke:#000000;stroke-width:0.8;" x="50.14375" xlink:href="#m5fe96bbf58" y="110.473783"/>
      </g>
     </g>
     <g id="text_17">
      <!-- 0.05 -->
      <g transform="translate(20.878125 114.273002)scale(0.1 -0.1)">
       <use xlink:href="#DejaVuSans-48"/>
       <use x="63.623047" xlink:href="#DejaVuSans-46"/>
       <use x="95.410156" xlink:href="#DejaVuSans-48"/>
       <use x="159.033203" xlink:href="#DejaVuSans-53"/>
      </g>
     </g>
    </g>
    <g id="ytick_7">
     <g id="line2d_23">
      <path clip-path="url(#p7709db4e5e)" d="M 50.14375 81.663222 
L 777.41875 81.663222 
" style="fill:none;stroke:#808080;stroke-dasharray:2.96,1.28;stroke-dashoffset:0;stroke-width:0.8;"/>
     </g>
     <g id="line2d_24">
      <g>
       <use style="stroke:#000000;stroke-width:0.8;" x="50.14375" xlink:href="#m5fe96bbf58" y="81.663222"/>
      </g>
     </g>
     <g id="text_18">
      <!-- 0.06 -->
      <g transform="translate(20.878125 85.462441)scale(0.1 -0.1)">
       <use xlink:href="#DejaVuSans-48"/>
       <use x="63.623047" xlink:href="#DejaVuSans-46"/>
       <use x="95.410156" xlink:href="#DejaVuSans-48"/>
       <use x="159.033203" xlink:href="#DejaVuSans-54"/>
      </g>
     </g>
    </g>
    <g id="ytick_8">
     <g id="line2d_25">
      <path clip-path="url(#p7709db4e5e)" d="M 50.14375 52.852661 
L 777.41875 52.852661 
" style="fill:none;stroke:#808080;stroke-dasharray:2.96,1.28;stroke-dashoffset:0;stroke-width:0.8;"/>
     </g>
     <g id="line2d_26">
      <g>
       <use style="stroke:#000000;stroke-width:0.8;" x="50.14375" xlink:href="#m5fe96bbf58" y="52.852661"/>
      </g>
     </g>
     <g id="text_19">
      <!-- 0.07 -->
      <g transform="translate(20.878125 56.65188)scale(0.1 -0.1)">
       <use xlink:href="#DejaVuSans-48"/>
       <use x="63.623047" xlink:href="#DejaVuSans-46"/>
       <use x="95.410156" xlink:href="#DejaVuSans-48"/>
       <use x="159.033203" xlink:href="#DejaVuSans-55"/>
      </g>
     </g>
    </g>
    <g id="text_20">
     <!-- MAP (OpenCaseBook) -->
     <defs>
      <path d="M 9.8125 72.90625 
L 24.515625 72.90625 
L 43.109375 23.296875 
L 61.8125 72.90625 
L 76.515625 72.90625 
L 76.515625 0 
L 66.890625 0 
L 66.890625 64.015625 
L 48.09375 14.015625 
L 38.1875 14.015625 
L 19.390625 64.015625 
L 19.390625 0 
L 9.8125 0 
z
" id="DejaVuSans-77"/>
      <path d="M 34.1875 63.1875 
L 20.796875 26.90625 
L 47.609375 26.90625 
z
M 28.609375 72.90625 
L 39.796875 72.90625 
L 67.578125 0 
L 57.328125 0 
L 50.6875 18.703125 
L 17.828125 18.703125 
L 11.1875 0 
L 0.78125 0 
z
" id="DejaVuSans-65"/>
      <path d="M 19.671875 64.796875 
L 19.671875 37.40625 
L 32.078125 37.40625 
Q 38.96875 37.40625 42.71875 40.96875 
Q 46.484375 44.53125 46.484375 51.125 
Q 46.484375 57.671875 42.71875 61.234375 
Q 38.96875 64.796875 32.078125 64.796875 
z
M 9.8125 72.90625 
L 32.078125 72.90625 
Q 44.34375 72.90625 50.609375 67.359375 
Q 56.890625 61.8125 56.890625 51.125 
Q 56.890625 40.328125 50.609375 34.8125 
Q 44.34375 29.296875 32.078125 29.296875 
L 19.671875 29.296875 
L 19.671875 0 
L 9.8125 0 
z
" id="DejaVuSans-80"/>
      <path d="M 39.40625 66.21875 
Q 28.65625 66.21875 22.328125 58.203125 
Q 16.015625 50.203125 16.015625 36.375 
Q 16.015625 22.609375 22.328125 14.59375 
Q 28.65625 6.59375 39.40625 6.59375 
Q 50.140625 6.59375 56.421875 14.59375 
Q 62.703125 22.609375 62.703125 36.375 
Q 62.703125 50.203125 56.421875 58.203125 
Q 50.140625 66.21875 39.40625 66.21875 
z
M 39.40625 74.21875 
Q 54.734375 74.21875 63.90625 63.9375 
Q 73.09375 53.65625 73.09375 36.375 
Q 73.09375 19.140625 63.90625 8.859375 
Q 54.734375 -1.421875 39.40625 -1.421875 
Q 24.03125 -1.421875 14.8125 8.828125 
Q 5.609375 19.09375 5.609375 36.375 
Q 5.609375 53.65625 14.8125 63.9375 
Q 24.03125 74.21875 39.40625 74.21875 
z
" id="DejaVuSans-79"/>
      <path d="M 18.109375 8.203125 
L 18.109375 -20.796875 
L 9.078125 -20.796875 
L 9.078125 54.6875 
L 18.109375 54.6875 
L 18.109375 46.390625 
Q 20.953125 51.265625 25.265625 53.625 
Q 29.59375 56 35.59375 56 
Q 45.5625 56 51.78125 48.09375 
Q 58.015625 40.1875 58.015625 27.296875 
Q 58.015625 14.40625 51.78125 6.484375 
Q 45.5625 -1.421875 35.59375 -1.421875 
Q 29.59375 -1.421875 25.265625 0.953125 
Q 20.953125 3.328125 18.109375 8.203125 
z
M 48.6875 27.296875 
Q 48.6875 37.203125 44.609375 42.84375 
Q 40.53125 48.484375 33.40625 48.484375 
Q 26.265625 48.484375 22.1875 42.84375 
Q 18.109375 37.203125 18.109375 27.296875 
Q 18.109375 17.390625 22.1875 11.75 
Q 26.265625 6.109375 33.40625 6.109375 
Q 40.53125 6.109375 44.609375 11.75 
Q 48.6875 17.390625 48.6875 27.296875 
z
" id="DejaVuSans-112"/>
      <path d="M 64.40625 67.28125 
L 64.40625 56.890625 
Q 59.421875 61.53125 53.78125 63.8125 
Q 48.140625 66.109375 41.796875 66.109375 
Q 29.296875 66.109375 22.65625 58.46875 
Q 16.015625 50.828125 16.015625 36.375 
Q 16.015625 21.96875 22.65625 14.328125 
Q 29.296875 6.6875 41.796875 6.6875 
Q 48.140625 6.6875 53.78125 8.984375 
Q 59.421875 11.28125 64.40625 15.921875 
L 64.40625 5.609375 
Q 59.234375 2.09375 53.4375 0.328125 
Q 47.65625 -1.421875 41.21875 -1.421875 
Q 24.65625 -1.421875 15.125 8.703125 
Q 5.609375 18.84375 5.609375 36.375 
Q 5.609375 53.953125 15.125 64.078125 
Q 24.65625 74.21875 41.21875 74.21875 
Q 47.75 74.21875 53.53125 72.484375 
Q 59.328125 70.75 64.40625 67.28125 
z
" id="DejaVuSans-67"/>
      <path d="M 19.671875 34.8125 
L 19.671875 8.109375 
L 35.5 8.109375 
Q 43.453125 8.109375 47.28125 11.40625 
Q 51.125 14.703125 51.125 21.484375 
Q 51.125 28.328125 47.28125 31.5625 
Q 43.453125 34.8125 35.5 34.8125 
z
M 19.671875 64.796875 
L 19.671875 42.828125 
L 34.28125 42.828125 
Q 41.5 42.828125 45.03125 45.53125 
Q 48.578125 48.25 48.578125 53.8125 
Q 48.578125 59.328125 45.03125 62.0625 
Q 41.5 64.796875 34.28125 64.796875 
z
M 9.8125 72.90625 
L 35.015625 72.90625 
Q 46.296875 72.90625 52.390625 68.21875 
Q 58.5 63.53125 58.5 54.890625 
Q 58.5 48.1875 55.375 44.234375 
Q 52.25 40.28125 46.1875 39.3125 
Q 53.46875 37.75 57.5 32.78125 
Q 61.53125 27.828125 61.53125 20.40625 
Q 61.53125 10.640625 54.890625 5.3125 
Q 48.25 0 35.984375 0 
L 9.8125 0 
z
" id="DejaVuSans-66"/>
     </defs>
     <g transform="translate(14.798438 203.667072)rotate(-90)scale(0.1 -0.1)">
      <use xlink:href="#DejaVuSans-77"/>
      <use x="86.279297" xlink:href="#DejaVuSans-65"/>
      <use x="154.6875" xlink:href="#DejaVuSans-80"/>
      <use x="214.990234" xlink:href="#DejaVuSans-32"/>
      <use x="246.777344" xlink:href="#DejaVuSans-40"/>
      <use x="285.791016" xlink:href="#DejaVuSans-79"/>
      <use x="364.501953" xlink:href="#DejaVuSans-112"/>
      <use x="427.978516" xlink:href="#DejaVuSans-101"/>
      <use x="489.501953" xlink:href="#DejaVuSans-110"/>
      <use x="552.880859" xlink:href="#DejaVuSans-67"/>
      <use x="622.705078" xlink:href="#DejaVuSans-97"/>
      <use x="683.984375" xlink:href="#DejaVuSans-115"/>
      <use x="736.083984" xlink:href="#DejaVuSans-101"/>
      <use x="797.607422" xlink:href="#DejaVuSans-66"/>
      <use x="866.210938" xlink:href="#DejaVuSans-111"/>
      <use x="927.392578" xlink:href="#DejaVuSans-111"/>
      <use x="988.574219" xlink:href="#DejaVuSans-107"/>
      <use x="1046.484375" xlink:href="#DejaVuSans-41"/>
     </g>
    </g>
   </g>
   <g id="patch_3">
    <path clip-path="url(#p7709db4e5e)" d="M 67.626322 254.526588 
L 75.49348 254.526588 
L 75.49348 212.015015 
L 67.626322 212.015015 
z
" style="fill:#f08080;opacity:0.9;stroke:#000000;stroke-linejoin:miter;"/>
   </g>
   <g id="patch_4">
    <path clip-path="url(#p7709db4e5e)" d="M 137.556611 254.526588 
L 145.423768 254.526588 
L 145.423768 220.043033 
L 137.556611 220.043033 
z
" style="fill:#f08080;opacity:0.9;stroke:#000000;stroke-linejoin:miter;"/>
   </g>
   <g id="patch_5">
    <path clip-path="url(#p7709db4e5e)" d="M 207.486899 254.526588 
L 215.354056 254.526588 
L 215.354056 217.23159 
L 207.486899 217.23159 
z
" style="fill:#f08080;opacity:0.9;stroke:#000000;stroke-linejoin:miter;"/>
   </g>
   <g id="patch_6">
    <path clip-path="url(#p7709db4e5e)" d="M 277.417187 254.526588 
L 285.284345 254.526588 
L 285.284345 207.17672 
L 277.417187 207.17672 
z
" style="fill:#f08080;opacity:0.9;stroke:#000000;stroke-linejoin:miter;"/>
   </g>
   <g id="patch_7">
    <path clip-path="url(#p7709db4e5e)" d="M 347.347476 254.526588 
L 355.214633 254.526588 
L 355.214633 212.720243 
L 347.347476 212.720243 
z
" style="fill:#f08080;opacity:0.9;stroke:#000000;stroke-linejoin:miter;"/>
   </g>
   <g id="patch_8">
    <path clip-path="url(#p7709db4e5e)" d="M 417.277764 254.526588 
L 425.144922 254.526588 
L 425.144922 202.974306 
L 417.277764 202.974306 
z
" style="fill:#f08080;opacity:0.9;stroke:#000000;stroke-linejoin:miter;"/>
   </g>
   <g id="patch_9">
    <path clip-path="url(#p7709db4e5e)" d="M 487.208053 254.526588 
L 495.07521 254.526588 
L 495.07521 200.091289 
L 487.208053 200.091289 
z
" style="fill:#f08080;opacity:0.9;stroke:#000000;stroke-linejoin:miter;"/>
   </g>
   <g id="patch_10">
    <path clip-path="url(#p7709db4e5e)" d="M 557.138341 254.526588 
L 565.005499 254.526588 
L 565.005499 191.89398 
L 557.138341 191.89398 
z
" style="fill:#f08080;opacity:0.9;stroke:#000000;stroke-linejoin:miter;"/>
   </g>
   <g id="patch_11">
    <path clip-path="url(#p7709db4e5e)" d="M 627.06863 254.526588 
L 634.935787 254.526588 
L 634.935787 171.572423 
L 627.06863 171.572423 
z
" style="fill:#f08080;opacity:0.9;stroke:#000000;stroke-linejoin:miter;"/>
   </g>
   <g id="patch_12">
    <path clip-path="url(#p7709db4e5e)" d="M 696.998918 254.526588 
L 704.866076 254.526588 
L 704.866076 143.768838 
L 696.998918 143.768838 
z
" style="fill:#f08080;opacity:0.9;stroke:#000000;stroke-linejoin:miter;"/>
   </g>
   <g id="patch_13">
    <path clip-path="url(#p7709db4e5e)" d="M 75.49348 254.526588 
L 83.360637 254.526588 
L 83.360637 169.784704 
L 75.49348 169.784704 
z
" style="fill:#ffff00;opacity:0.9;stroke:#000000;stroke-linejoin:miter;"/>
   </g>
   <g id="patch_14">
    <path clip-path="url(#p7709db4e5e)" d="M 145.423768 254.526588 
L 153.290925 254.526588 
L 153.290925 145.827169 
L 145.423768 145.827169 
z
" style="fill:#ffff00;opacity:0.9;stroke:#000000;stroke-linejoin:miter;"/>
   </g>
   <g id="patch_15">
    <path clip-path="url(#p7709db4e5e)" d="M 215.354056 254.526588 
L 223.221214 254.526588 
L 223.221214 149.778913 
L 215.354056 149.778913 
z
" style="fill:#ffff00;opacity:0.9;stroke:#000000;stroke-linejoin:miter;"/>
   </g>
   <g id="patch_16">
    <path clip-path="url(#p7709db4e5e)" d="M 285.284345 254.526588 
L 293.151502 254.526588 
L 293.151502 139.833772 
L 285.284345 139.833772 
z
" style="fill:#ffff00;opacity:0.9;stroke:#000000;stroke-linejoin:miter;"/>
   </g>
   <g id="patch_17">
    <path clip-path="url(#p7709db4e5e)" d="M 355.214633 254.526588 
L 363.081791 254.526588 
L 363.081791 92.85628 
L 355.214633 92.85628 
z
" style="fill:#ffff00;opacity:0.9;stroke:#000000;stroke-linejoin:miter;"/>
   </g>
   <g id="patch_18">
    <path clip-path="url(#p7709db4e5e)" d="M 425.144922 254.526588 
L 433.012079 254.526588 
L 433.012079 91.543432 
L 425.144922 91.543432 
z
" style="fill:#ffff00;opacity:0.9;stroke:#000000;stroke-linejoin:miter;"/>
   </g>
   <g id="patch_19">
    <path clip-path="url(#p7709db4e5e)" d="M 495.07521 254.526588 
L 502.942368 254.526588 
L 502.942368 114.86952 
L 495.07521 114.86952 
z
" style="fill:#ffff00;opacity:0.9;stroke:#000000;stroke-linejoin:miter;"/>
   </g>
   <g id="patch_20">
    <path clip-path="url(#p7709db4e5e)" d="M 565.005499 254.526588 
L 572.872656 254.526588 
L 572.872656 88.431407 
L 565.005499 88.431407 
z
" style="fill:#ffff00;opacity:0.9;stroke:#000000;stroke-linejoin:miter;"/>
   </g>
   <g id="patch_21">
    <path clip-path="url(#p7709db4e5e)" d="M 634.935787 254.526588 
L 642.802945 254.526588 
L 642.802945 71.772962 
L 634.935787 71.772962 
z
" style="fill:#ffff00;opacity:0.9;stroke:#000000;stroke-linejoin:miter;"/>
   </g>
   <g id="patch_22">
    <path clip-path="url(#p7709db4e5e)" d="M 704.866076 254.526588 
L 712.733233 254.526588 
L 712.733233 61.31544 
L 704.866076 61.31544 
z
" style="fill:#ffff00;opacity:0.9;stroke:#000000;stroke-linejoin:miter;"/>
   </g>
   <g id="patch_23">
    <path clip-path="url(#p7709db4e5e)" d="M 83.360637 254.526588 
L 91.227794 254.526588 
L 91.227794 172.521375 
L 83.360637 172.521375 
z
" style="fill:url(#he50411b5cd);opacity:0.9;stroke:#000000;stroke-linejoin:miter;"/>
   </g>
   <g id="patch_24">
    <path clip-path="url(#p7709db4e5e)" d="M 153.290925 254.526588 
L 161.158083 254.526588 
L 161.158083 146.462163 
L 153.290925 146.462163 
z
" style="fill:url(#he50411b5cd);opacity:0.9;stroke:#000000;stroke-linejoin:miter;"/>
   </g>
   <g id="patch_25">
    <path clip-path="url(#p7709db4e5e)" d="M 223.221214 254.526588 
L 231.088371 254.526588 
L 231.088371 164.571573 
L 223.221214 164.571573 
z
" style="fill:url(#he50411b5cd);opacity:0.9;stroke:#000000;stroke-linejoin:miter;"/>
   </g>
   <g id="patch_26">
    <path clip-path="url(#p7709db4e5e)" d="M 293.151502 254.526588 
L 301.01866 254.526588 
L 301.01866 153.408322 
L 293.151502 153.408322 
z
" style="fill:url(#he50411b5cd);opacity:0.9;stroke:#000000;stroke-linejoin:miter;"/>
   </g>
   <g id="patch_27">
    <path clip-path="url(#p7709db4e5e)" d="M 363.081791 254.526588 
L 370.948948 254.526588 
L 370.948948 120.78725 
L 363.081791 120.78725 
z
" style="fill:url(#he50411b5cd);opacity:0.9;stroke:#000000;stroke-linejoin:miter;"/>
   </g>
   <g id="patch_28">
    <path clip-path="url(#p7709db4e5e)" d="M 433.012079 254.526588 
L 440.879237 254.526588 
L 440.879237 107.263565 
L 433.012079 107.263565 
z
" style="fill:url(#he50411b5cd);opacity:0.9;stroke:#000000;stroke-linejoin:miter;"/>
   </g>
   <g id="patch_29">
    <path clip-path="url(#p7709db4e5e)" d="M 502.942368 254.526588 
L 510.809525 254.526588 
L 510.809525 123.528381 
L 502.942368 123.528381 
z
" style="fill:url(#he50411b5cd);opacity:0.9;stroke:#000000;stroke-linejoin:miter;"/>
   </g>
   <g id="patch_30">
    <path clip-path="url(#p7709db4e5e)" d="M 572.872656 254.526588 
L 580.739814 254.526588 
L 580.739814 123.387219 
L 572.872656 123.387219 
z
" style="fill:url(#he50411b5cd);opacity:0.9;stroke:#000000;stroke-linejoin:miter;"/>
   </g>
   <g id="patch_31">
    <path clip-path="url(#p7709db4e5e)" d="M 642.802945 254.526588 
L 650.670102 254.526588 
L 650.670102 84.154089 
L 642.802945 84.154089 
z
" style="fill:url(#he50411b5cd);opacity:0.9;stroke:#000000;stroke-linejoin:miter;"/>
   </g>
   <g id="patch_32">
    <path clip-path="url(#p7709db4e5e)" d="M 712.733233 254.526588 
L 720.600391 254.526588 
L 720.600391 55.622255 
L 712.733233 55.622255 
z
" style="fill:url(#he50411b5cd);opacity:0.9;stroke:#000000;stroke-linejoin:miter;"/>
   </g>
   <g id="patch_33">
    <path clip-path="url(#p7709db4e5e)" d="M 91.227794 254.526588 
L 99.094952 254.526588 
L 99.094952 167.087668 
L 91.227794 167.087668 
z
" style="fill:#ff0000;opacity:0.9;stroke:#000000;stroke-linejoin:miter;"/>
   </g>
   <g id="patch_34">
    <path clip-path="url(#p7709db4e5e)" d="M 161.158083 254.526588 
L 169.02524 254.526588 
L 169.02524 142.251783 
L 161.158083 142.251783 
z
" style="fill:#ff0000;opacity:0.9;stroke:#000000;stroke-linejoin:miter;"/>
   </g>
   <g id="patch_35">
    <path clip-path="url(#p7709db4e5e)" d="M 231.088371 254.526588 
L 238.955529 254.526588 
L 238.955529 149.869335 
L 231.088371 149.869335 
z
" style="fill:#ff0000;opacity:0.9;stroke:#000000;stroke-linejoin:miter;"/>
   </g>
   <g id="patch_36">
    <path clip-path="url(#p7709db4e5e)" d="M 301.01866 254.526588 
L 308.885817 254.526588 
L 308.885817 128.558438 
L 301.01866 128.558438 
z
" style="fill:#ff0000;opacity:0.9;stroke:#000000;stroke-linejoin:miter;"/>
   </g>
   <g id="patch_37">
    <path clip-path="url(#p7709db4e5e)" d="M 370.948948 254.526588 
L 378.816106 254.526588 
L 378.816106 108.139482 
L 370.948948 108.139482 
z
" style="fill:#ff0000;opacity:0.9;stroke:#000000;stroke-linejoin:miter;"/>
   </g>
   <g id="patch_38">
    <path clip-path="url(#p7709db4e5e)" d="M 440.879237 254.526588 
L 448.746394 254.526588 
L 448.746394 92.089493 
L 440.879237 92.089493 
z
" style="fill:#ff0000;opacity:0.9;stroke:#000000;stroke-linejoin:miter;"/>
   </g>
   <g id="patch_39">
    <path clip-path="url(#p7709db4e5e)" d="M 510.809525 254.526588 
L 518.676683 254.526588 
L 518.676683 109.97039 
L 510.809525 109.97039 
z
" style="fill:#ff0000;opacity:0.9;stroke:#000000;stroke-linejoin:miter;"/>
   </g>
   <g id="patch_40">
    <path clip-path="url(#p7709db4e5e)" d="M 580.739814 254.526588 
L 588.606971 254.526588 
L 588.606971 98.438083 
L 580.739814 98.438083 
z
" style="fill:#ff0000;opacity:0.9;stroke:#000000;stroke-linejoin:miter;"/>
   </g>
   <g id="patch_41">
    <path clip-path="url(#p7709db4e5e)" d="M 650.670102 254.526588 
L 658.53726 254.526588 
L 658.53726 55.606568 
L 650.670102 55.606568 
z
" style="fill:#ff0000;opacity:0.9;stroke:#000000;stroke-linejoin:miter;"/>
   </g>
   <g id="patch_42">
    <path clip-path="url(#p7709db4e5e)" d="M 720.600391 254.526588 
L 728.467548 254.526588 
L 728.467548 54.267391 
L 720.600391 54.267391 
z
" style="fill:#ff0000;opacity:0.9;stroke:#000000;stroke-linejoin:miter;"/>
   </g>
   <g id="patch_43">
    <path clip-path="url(#p7709db4e5e)" d="M 99.094952 254.526588 
L 106.962109 254.526588 
L 106.962109 171.634105 
L 99.094952 171.634105 
z
" style="fill:url(#h4ae9aa8e33);opacity:0.9;stroke:#000000;stroke-linejoin:miter;"/>
   </g>
   <g id="patch_44">
    <path clip-path="url(#p7709db4e5e)" d="M 169.02524 254.526588 
L 176.892398 254.526588 
L 176.892398 144.551443 
L 169.02524 144.551443 
z
" style="fill:url(#h4ae9aa8e33);opacity:0.9;stroke:#000000;stroke-linejoin:miter;"/>
   </g>
   <g id="patch_45">
    <path clip-path="url(#p7709db4e5e)" d="M 238.955529 254.526588 
L 246.822686 254.526588 
L 246.822686 147.149923 
L 238.955529 147.149923 
z
" style="fill:url(#h4ae9aa8e33);opacity:0.9;stroke:#000000;stroke-linejoin:miter;"/>
   </g>
   <g id="patch_46">
    <path clip-path="url(#p7709db4e5e)" d="M 308.885817 254.526588 
L 316.752975 254.526588 
L 316.752975 138.007273 
L 308.885817 138.007273 
z
" style="fill:url(#h4ae9aa8e33);opacity:0.9;stroke:#000000;stroke-linejoin:miter;"/>
   </g>
   <g id="patch_47">
    <path clip-path="url(#p7709db4e5e)" d="M 378.816106 254.526588 
L 386.683263 254.526588 
L 386.683263 111.990267 
L 378.816106 111.990267 
z
" style="fill:url(#h4ae9aa8e33);opacity:0.9;stroke:#000000;stroke-linejoin:miter;"/>
   </g>
   <g id="patch_48">
    <path clip-path="url(#p7709db4e5e)" d="M 448.746394 254.526588 
L 456.613552 254.526588 
L 456.613552 109.829121 
L 448.746394 109.829121 
z
" style="fill:url(#h4ae9aa8e33);opacity:0.9;stroke:#000000;stroke-linejoin:miter;"/>
   </g>
   <g id="patch_49">
    <path clip-path="url(#p7709db4e5e)" d="M 518.676683 254.526588 
L 526.54384 254.526588 
L 526.54384 123.165041 
L 518.676683 123.165041 
z
" style="fill:url(#h4ae9aa8e33);opacity:0.9;stroke:#000000;stroke-linejoin:miter;"/>
   </g>
   <g id="patch_50">
    <path clip-path="url(#p7709db4e5e)" d="M 588.606971 254.526588 
L 596.474129 254.526588 
L 596.474129 114.215371 
L 588.606971 114.215371 
z
" style="fill:url(#h4ae9aa8e33);opacity:0.9;stroke:#000000;stroke-linejoin:miter;"/>
   </g>
   <g id="patch_51">
    <path clip-path="url(#p7709db4e5e)" d="M 658.53726 254.526588 
L 666.404417 254.526588 
L 666.404417 82.526697 
L 658.53726 82.526697 
z
" style="fill:url(#h4ae9aa8e33);opacity:0.9;stroke:#000000;stroke-linejoin:miter;"/>
   </g>
   <g id="patch_52">
    <path clip-path="url(#p7709db4e5e)" d="M 728.467548 254.526588 
L 736.334706 254.526588 
L 736.334706 87.210766 
L 728.467548 87.210766 
z
" style="fill:url(#h4ae9aa8e33);opacity:0.9;stroke:#000000;stroke-linejoin:miter;"/>
   </g>
   <g id="patch_53">
    <path clip-path="url(#p7709db4e5e)" d="M 106.962109 254.526588 
L 114.829267 254.526588 
L 114.829267 227.637955 
L 106.962109 227.637955 
z
" style="fill:url(#hc34de5a143);opacity:0.9;stroke:#000000;stroke-linejoin:miter;"/>
   </g>
   <g id="patch_54">
    <path clip-path="url(#p7709db4e5e)" d="M 176.892398 254.526588 
L 184.759555 254.526588 
L 184.759555 215.914295 
L 176.892398 215.914295 
z
" style="fill:url(#hc34de5a143);opacity:0.9;stroke:#000000;stroke-linejoin:miter;"/>
   </g>
   <g id="patch_55">
    <path clip-path="url(#p7709db4e5e)" d="M 246.822686 254.526588 
L 254.689844 254.526588 
L 254.689844 166.100016 
L 246.822686 166.100016 
z
" style="fill:url(#hc34de5a143);opacity:0.9;stroke:#000000;stroke-linejoin:miter;"/>
   </g>
   <g id="patch_56">
    <path clip-path="url(#p7709db4e5e)" d="M 316.752975 254.526588 
L 324.620132 254.526588 
L 324.620132 164.655744 
L 316.752975 164.655744 
z
" style="fill:url(#hc34de5a143);opacity:0.9;stroke:#000000;stroke-linejoin:miter;"/>
   </g>
   <g id="patch_57">
    <path clip-path="url(#p7709db4e5e)" d="M 386.683263 254.526588 
L 394.550421 254.526588 
L 394.550421 145.26738 
L 386.683263 145.26738 
z
" style="fill:url(#hc34de5a143);opacity:0.9;stroke:#000000;stroke-linejoin:miter;"/>
   </g>
   <g id="patch_58">
    <path clip-path="url(#p7709db4e5e)" d="M 456.613552 254.526588 
L 464.480709 254.526588 
L 464.480709 142.632937 
L 456.613552 142.632937 
z
" style="fill:url(#hc34de5a143);opacity:0.9;stroke:#000000;stroke-linejoin:miter;"/>
   </g>
   <g id="patch_59">
    <path clip-path="url(#p7709db4e5e)" d="M 526.54384 254.526588 
L 534.410998 254.526588 
L 534.410998 158.879997 
L 526.54384 158.879997 
z
" style="fill:url(#hc34de5a143);opacity:0.9;stroke:#000000;stroke-linejoin:miter;"/>
   </g>
   <g id="patch_60">
    <path clip-path="url(#p7709db4e5e)" d="M 596.474129 254.526588 
L 604.341286 254.526588 
L 604.341286 147.719722 
L 596.474129 147.719722 
z
" style="fill:url(#hc34de5a143);opacity:0.9;stroke:#000000;stroke-linejoin:miter;"/>
   </g>
   <g id="patch_61">
    <path clip-path="url(#p7709db4e5e)" d="M 666.404417 254.526588 
L 674.271575 254.526588 
L 674.271575 134.332768 
L 666.404417 134.332768 
z
" style="fill:url(#hc34de5a143);opacity:0.9;stroke:#000000;stroke-linejoin:miter;"/>
   </g>
   <g id="patch_62">
    <path clip-path="url(#p7709db4e5e)" d="M 736.334706 254.526588 
L 744.201863 254.526588 
L 744.201863 123.767305 
L 736.334706 123.767305 
z
" style="fill:url(#hc34de5a143);opacity:0.9;stroke:#000000;stroke-linejoin:miter;"/>
   </g>
   <g id="patch_63">
    <path clip-path="url(#p7709db4e5e)" d="M 114.829267 254.526588 
L 122.696424 254.526588 
L 122.696424 191.434018 
L 114.829267 191.434018 
z
" style="fill:url(#h1ea96b3736);opacity:0.9;stroke:#000000;stroke-linejoin:miter;"/>
   </g>
   <g id="patch_64">
    <path clip-path="url(#p7709db4e5e)" d="M 184.759555 254.526588 
L 192.626713 254.526588 
L 192.626713 200.816309 
L 184.759555 200.816309 
z
" style="fill:url(#h1ea96b3736);opacity:0.9;stroke:#000000;stroke-linejoin:miter;"/>
   </g>
   <g id="patch_65">
    <path clip-path="url(#p7709db4e5e)" d="M 254.689844 254.526588 
L 262.557001 254.526588 
L 262.557001 201.601067 
L 254.689844 201.601067 
z
" style="fill:url(#h1ea96b3736);opacity:0.9;stroke:#000000;stroke-linejoin:miter;"/>
   </g>
   <g id="patch_66">
    <path clip-path="url(#p7709db4e5e)" d="M 324.620132 254.526588 
L 332.48729 254.526588 
L 332.48729 203.150948 
L 324.620132 203.150948 
z
" style="fill:url(#h1ea96b3736);opacity:0.9;stroke:#000000;stroke-linejoin:miter;"/>
   </g>
   <g id="patch_67">
    <path clip-path="url(#p7709db4e5e)" d="M 394.550421 254.526588 
L 402.417578 254.526588 
L 402.417578 200.693807 
L 394.550421 200.693807 
z
" style="fill:url(#h1ea96b3736);opacity:0.9;stroke:#000000;stroke-linejoin:miter;"/>
   </g>
   <g id="patch_68">
    <path clip-path="url(#p7709db4e5e)" d="M 464.480709 254.526588 
L 472.347867 254.526588 
L 472.347867 193.887862 
L 464.480709 193.887862 
z
" style="fill:url(#h1ea96b3736);opacity:0.9;stroke:#000000;stroke-linejoin:miter;"/>
   </g>
   <g id="patch_69">
    <path clip-path="url(#p7709db4e5e)" d="M 534.410998 254.526588 
L 542.278155 254.526588 
L 542.278155 198.087869 
L 534.410998 198.087869 
z
" style="fill:url(#h1ea96b3736);opacity:0.9;stroke:#000000;stroke-linejoin:miter;"/>
   </g>
   <g id="patch_70">
    <path clip-path="url(#p7709db4e5e)" d="M 604.341286 254.526588 
L 612.208444 254.526588 
L 612.208444 204.627028 
L 604.341286 204.627028 
z
" style="fill:url(#h1ea96b3736);opacity:0.9;stroke:#000000;stroke-linejoin:miter;"/>
   </g>
   <g id="patch_71">
    <path clip-path="url(#p7709db4e5e)" d="M 674.271575 254.526588 
L 682.138732 254.526588 
L 682.138732 191.872401 
L 674.271575 191.872401 
z
" style="fill:url(#h1ea96b3736);opacity:0.9;stroke:#000000;stroke-linejoin:miter;"/>
   </g>
   <g id="patch_72">
    <path clip-path="url(#p7709db4e5e)" d="M 744.201863 254.526588 
L 752.06902 254.526588 
L 752.06902 202.453157 
L 744.201863 202.453157 
z
" style="fill:url(#h1ea96b3736);opacity:0.9;stroke:#000000;stroke-linejoin:miter;"/>
   </g>
   <g id="patch_73">
    <path clip-path="url(#p7709db4e5e)" d="M 122.696424 254.526588 
L 130.563582 254.526588 
L 130.563582 185.864533 
L 122.696424 185.864533 
z
" style="fill:#8fbc8f;opacity:0.9;stroke:#000000;stroke-linejoin:miter;"/>
   </g>
   <g id="patch_74">
    <path clip-path="url(#p7709db4e5e)" d="M 192.626713 254.526588 
L 200.49387 254.526588 
L 200.49387 184.113531 
L 192.626713 184.113531 
z
" style="fill:#8fbc8f;opacity:0.9;stroke:#000000;stroke-linejoin:miter;"/>
   </g>
   <g id="patch_75">
    <path clip-path="url(#p7709db4e5e)" d="M 262.557001 254.526588 
L 270.424159 254.526588 
L 270.424159 172.492754 
L 262.557001 172.492754 
z
" style="fill:#8fbc8f;opacity:0.9;stroke:#000000;stroke-linejoin:miter;"/>
   </g>
   <g id="patch_76">
    <path clip-path="url(#p7709db4e5e)" d="M 332.48729 254.526588 
L 340.354447 254.526588 
L 340.354447 173.982062 
L 332.48729 173.982062 
z
" style="fill:#8fbc8f;opacity:0.9;stroke:#000000;stroke-linejoin:miter;"/>
   </g>
   <g id="patch_77">
    <path clip-path="url(#p7709db4e5e)" d="M 402.417578 254.526588 
L 410.284736 254.526588 
L 410.284736 139.524715 
L 402.417578 139.524715 
z
" style="fill:#8fbc8f;opacity:0.9;stroke:#000000;stroke-linejoin:miter;"/>
   </g>
   <g id="patch_78">
    <path clip-path="url(#p7709db4e5e)" d="M 472.347867 254.526588 
L 480.215024 254.526588 
L 480.215024 142.798825 
L 472.347867 142.798825 
z
" style="fill:#8fbc8f;opacity:0.9;stroke:#000000;stroke-linejoin:miter;"/>
   </g>
   <g id="patch_79">
    <path clip-path="url(#p7709db4e5e)" d="M 542.278155 254.526588 
L 550.145312 254.526588 
L 550.145312 151.699248 
L 542.278155 151.699248 
z
" style="fill:#8fbc8f;opacity:0.9;stroke:#000000;stroke-linejoin:miter;"/>
   </g>
   <g id="patch_80">
    <path clip-path="url(#p7709db4e5e)" d="M 612.208444 254.526588 
L 620.075601 254.526588 
L 620.075601 135.058904 
L 612.208444 135.058904 
z
" style="fill:#8fbc8f;opacity:0.9;stroke:#000000;stroke-linejoin:miter;"/>
   </g>
   <g id="patch_81">
    <path clip-path="url(#p7709db4e5e)" d="M 682.138732 254.526588 
L 690.005889 254.526588 
L 690.005889 108.039662 
L 682.138732 108.039662 
z
" style="fill:#8fbc8f;opacity:0.9;stroke:#000000;stroke-linejoin:miter;"/>
   </g>
   <g id="patch_82">
    <path clip-path="url(#p7709db4e5e)" d="M 752.06902 254.526588 
L 759.936178 254.526588 
L 759.936178 115.159179 
L 752.06902 115.159179 
z
" style="fill:#8fbc8f;opacity:0.9;stroke:#000000;stroke-linejoin:miter;"/>
   </g>
   <g id="patch_83">
    <path d="M 50.14375 254.526588 
L 50.14375 44.254431 
" style="fill:none;stroke:#000000;stroke-linecap:square;stroke-linejoin:miter;stroke-width:0.8;"/>
   </g>
   <g id="patch_84">
    <path d="M 777.41875 254.526588 
L 777.41875 44.254431 
" style="fill:none;stroke:#000000;stroke-linecap:square;stroke-linejoin:miter;stroke-width:0.8;"/>
   </g>
   <g id="patch_85">
    <path d="M 50.14375 254.526588 
L 777.41875 254.526588 
" style="fill:none;stroke:#000000;stroke-linecap:square;stroke-linejoin:miter;stroke-width:0.8;"/>
   </g>
   <g id="patch_86">
    <path d="M 50.14375 44.254431 
L 777.41875 44.254431 
" style="fill:none;stroke:#000000;stroke-linecap:square;stroke-linejoin:miter;stroke-width:0.8;"/>
   </g>
   <g id="legend_1">
    <g id="patch_87">
     <path d="M 159.899219 39.55625 
L 667.663281 39.55625 
Q 669.663281 39.55625 669.663281 37.55625 
L 669.663281 9.2 
Q 669.663281 7.2 667.663281 7.2 
L 159.899219 7.2 
Q 157.899219 7.2 157.899219 9.2 
L 157.899219 37.55625 
Q 157.899219 39.55625 159.899219 39.55625 
z
" style="fill:#ffffff;opacity:0.8;stroke:#cccccc;stroke-linejoin:miter;"/>
    </g>
    <g id="patch_88">
     <path d="M 161.899219 18.798437 
L 181.899219 18.798437 
L 181.899219 11.798437 
L 161.899219 11.798437 
z
" style="fill:#f08080;opacity:0.9;stroke:#000000;stroke-linejoin:miter;"/>
    </g>
    <g id="text_21">
     <!-- TF-IDF -->
     <defs>
      <path d="M 9.8125 72.90625 
L 51.703125 72.90625 
L 51.703125 64.59375 
L 19.671875 64.59375 
L 19.671875 43.109375 
L 48.578125 43.109375 
L 48.578125 34.8125 
L 19.671875 34.8125 
L 19.671875 0 
L 9.8125 0 
z
" id="DejaVuSans-70"/>
      <path d="M 9.8125 72.90625 
L 19.671875 72.90625 
L 19.671875 0 
L 9.8125 0 
z
" id="DejaVuSans-73"/>
      <path d="M 19.671875 64.796875 
L 19.671875 8.109375 
L 31.59375 8.109375 
Q 46.6875 8.109375 53.6875 14.9375 
Q 60.6875 21.78125 60.6875 36.53125 
Q 60.6875 51.171875 53.6875 57.984375 
Q 46.6875 64.796875 31.59375 64.796875 
z
M 9.8125 72.90625 
L 30.078125 72.90625 
Q 51.265625 72.90625 61.171875 64.09375 
Q 71.09375 55.28125 71.09375 36.53125 
Q 71.09375 17.671875 61.125 8.828125 
Q 51.171875 0 30.078125 0 
L 9.8125 0 
z
" id="DejaVuSans-68"/>
     </defs>
     <g transform="translate(189.899219 18.798437)scale(0.1 -0.1)">
      <use xlink:href="#DejaVuSans-84"/>
      <use x="61.083984" xlink:href="#DejaVuSans-70"/>
      <use x="118.603516" xlink:href="#DejaVuSans-45"/>
      <use x="154.6875" xlink:href="#DejaVuSans-73"/>
      <use x="184.179688" xlink:href="#DejaVuSans-68"/>
      <use x="261.181641" xlink:href="#DejaVuSans-70"/>
     </g>
    </g>
    <g id="patch_89">
     <path d="M 161.899219 33.476562 
L 181.899219 33.476562 
L 181.899219 26.476562 
L 161.899219 26.476562 
z
" style="fill:#ffff00;opacity:0.9;stroke:#000000;stroke-linejoin:miter;"/>
    </g>
    <g id="text_22">
     <!-- Doc2Vec -->
     <defs>
      <path d="M 28.609375 0 
L 0.78125 72.90625 
L 11.078125 72.90625 
L 34.1875 11.53125 
L 57.328125 72.90625 
L 67.578125 72.90625 
L 39.796875 0 
z
" id="DejaVuSans-86"/>
     </defs>
     <g transform="translate(189.899219 33.476562)scale(0.1 -0.1)">
      <use xlink:href="#DejaVuSans-68"/>
      <use x="77.001953" xlink:href="#DejaVuSans-111"/>
      <use x="138.183594" xlink:href="#DejaVuSans-99"/>
      <use x="193.164062" xlink:href="#DejaVuSans-50"/>
      <use x="256.787109" xlink:href="#DejaVuSans-86"/>
      <use x="317.445312" xlink:href="#DejaVuSans-101"/>
      <use x="378.96875" xlink:href="#DejaVuSans-99"/>
     </g>
    </g>
    <g id="patch_90">
     <path d="M 253.296094 18.798437 
L 273.296094 18.798437 
L 273.296094 11.798437 
L 253.296094 11.798437 
z
" style="fill:url(#he50411b5cd);opacity:0.9;stroke:#000000;stroke-linejoin:miter;"/>
    </g>
    <g id="text_23">
     <!-- AvgFastText -->
     <defs>
      <path d="M 2.984375 54.6875 
L 12.5 54.6875 
L 29.59375 8.796875 
L 46.6875 54.6875 
L 56.203125 54.6875 
L 35.6875 0 
L 23.484375 0 
z
" id="DejaVuSans-118"/>
     </defs>
     <g transform="translate(281.296094 18.798437)scale(0.1 -0.1)">
      <use xlink:href="#DejaVuSans-65"/>
      <use x="62.533203" xlink:href="#DejaVuSans-118"/>
      <use x="121.712891" xlink:href="#DejaVuSans-103"/>
      <use x="185.189453" xlink:href="#DejaVuSans-70"/>
      <use x="233.583984" xlink:href="#DejaVuSans-97"/>
      <use x="294.863281" xlink:href="#DejaVuSans-115"/>
      <use x="346.962891" xlink:href="#DejaVuSans-116"/>
      <use x="386.171875" xlink:href="#DejaVuSans-84"/>
      <use x="430.255859" xlink:href="#DejaVuSans-101"/>
      <use x="490.029297" xlink:href="#DejaVuSans-120"/>
      <use x="549.208984" xlink:href="#DejaVuSans-116"/>
     </g>
    </g>
    <g id="patch_91">
     <path d="M 253.296094 33.476562 
L 273.296094 33.476562 
L 273.296094 26.476562 
L 253.296094 26.476562 
z
" style="fill:#ff0000;opacity:0.9;stroke:#000000;stroke-linejoin:miter;"/>
    </g>
    <g id="text_24">
     <!-- AvgFastText OCB+WS -->
     <defs>
      <path d="M 46 62.703125 
L 46 35.5 
L 73.1875 35.5 
L 73.1875 27.203125 
L 46 27.203125 
L 46 0 
L 37.796875 0 
L 37.796875 27.203125 
L 10.59375 27.203125 
L 10.59375 35.5 
L 37.796875 35.5 
L 37.796875 62.703125 
z
" id="DejaVuSans-43"/>
      <path d="M 3.328125 72.90625 
L 13.28125 72.90625 
L 28.609375 11.28125 
L 43.890625 72.90625 
L 54.984375 72.90625 
L 70.3125 11.28125 
L 85.59375 72.90625 
L 95.609375 72.90625 
L 77.296875 0 
L 64.890625 0 
L 49.515625 63.28125 
L 33.984375 0 
L 21.578125 0 
z
" id="DejaVuSans-87"/>
      <path d="M 53.515625 70.515625 
L 53.515625 60.890625 
Q 47.90625 63.578125 42.921875 64.890625 
Q 37.9375 66.21875 33.296875 66.21875 
Q 25.25 66.21875 20.875 63.09375 
Q 16.5 59.96875 16.5 54.203125 
Q 16.5 49.359375 19.40625 46.890625 
Q 22.3125 44.4375 30.421875 42.921875 
L 36.375 41.703125 
Q 47.40625 39.59375 52.65625 34.296875 
Q 57.90625 29 57.90625 20.125 
Q 57.90625 9.515625 50.796875 4.046875 
Q 43.703125 -1.421875 29.984375 -1.421875 
Q 24.8125 -1.421875 18.96875 -0.25 
Q 13.140625 0.921875 6.890625 3.21875 
L 6.890625 13.375 
Q 12.890625 10.015625 18.65625 8.296875 
Q 24.421875 6.59375 29.984375 6.59375 
Q 38.421875 6.59375 43.015625 9.90625 
Q 47.609375 13.234375 47.609375 19.390625 
Q 47.609375 24.75 44.3125 27.78125 
Q 41.015625 30.8125 33.5 32.328125 
L 27.484375 33.5 
Q 16.453125 35.6875 11.515625 40.375 
Q 6.59375 45.0625 6.59375 53.421875 
Q 6.59375 63.09375 13.40625 68.65625 
Q 20.21875 74.21875 32.171875 74.21875 
Q 37.3125 74.21875 42.625 73.28125 
Q 47.953125 72.359375 53.515625 70.515625 
z
" id="DejaVuSans-83"/>
     </defs>
     <g transform="translate(281.296094 33.476562)scale(0.1 -0.1)">
      <use xlink:href="#DejaVuSans-65"/>
      <use x="62.533203" xlink:href="#DejaVuSans-118"/>
      <use x="121.712891" xlink:href="#DejaVuSans-103"/>
      <use x="185.189453" xlink:href="#DejaVuSans-70"/>
      <use x="233.583984" xlink:href="#DejaVuSans-97"/>
      <use x="294.863281" xlink:href="#DejaVuSans-115"/>
      <use x="346.962891" xlink:href="#DejaVuSans-116"/>
      <use x="386.171875" xlink:href="#DejaVuSans-84"/>
      <use x="430.255859" xlink:href="#DejaVuSans-101"/>
      <use x="490.029297" xlink:href="#DejaVuSans-120"/>
      <use x="549.208984" xlink:href="#DejaVuSans-116"/>
      <use x="588.417969" xlink:href="#DejaVuSans-32"/>
      <use x="620.205078" xlink:href="#DejaVuSans-79"/>
      <use x="698.916016" xlink:href="#DejaVuSans-67"/>
      <use x="768.740234" xlink:href="#DejaVuSans-66"/>
      <use x="837.34375" xlink:href="#DejaVuSans-43"/>
      <use x="921.132812" xlink:href="#DejaVuSans-87"/>
      <use x="1020.009766" xlink:href="#DejaVuSans-83"/>
     </g>
    </g>
    <g id="patch_92">
     <path d="M 409.647656 18.798437 
L 429.647656 18.798437 
L 429.647656 11.798437 
L 409.647656 11.798437 
z
" style="fill:url(#h4ae9aa8e33);opacity:0.9;stroke:#000000;stroke-linejoin:miter;"/>
    </g>
    <g id="text_25">
     <!-- AvgFastText OCB+WS-4096 -->
     <g transform="translate(437.647656 18.798437)scale(0.1 -0.1)">
      <use xlink:href="#DejaVuSans-65"/>
      <use x="62.533203" xlink:href="#DejaVuSans-118"/>
      <use x="121.712891" xlink:href="#DejaVuSans-103"/>
      <use x="185.189453" xlink:href="#DejaVuSans-70"/>
      <use x="233.583984" xlink:href="#DejaVuSans-97"/>
      <use x="294.863281" xlink:href="#DejaVuSans-115"/>
      <use x="346.962891" xlink:href="#DejaVuSans-116"/>
      <use x="386.171875" xlink:href="#DejaVuSans-84"/>
      <use x="430.255859" xlink:href="#DejaVuSans-101"/>
      <use x="490.029297" xlink:href="#DejaVuSans-120"/>
      <use x="549.208984" xlink:href="#DejaVuSans-116"/>
      <use x="588.417969" xlink:href="#DejaVuSans-32"/>
      <use x="620.205078" xlink:href="#DejaVuSans-79"/>
      <use x="698.916016" xlink:href="#DejaVuSans-67"/>
      <use x="768.740234" xlink:href="#DejaVuSans-66"/>
      <use x="837.34375" xlink:href="#DejaVuSans-43"/>
      <use x="921.132812" xlink:href="#DejaVuSans-87"/>
      <use x="1020.009766" xlink:href="#DejaVuSans-83"/>
      <use x="1083.486328" xlink:href="#DejaVuSans-45"/>
      <use x="1119.570312" xlink:href="#DejaVuSans-52"/>
      <use x="1183.193359" xlink:href="#DejaVuSans-48"/>
      <use x="1246.816406" xlink:href="#DejaVuSans-57"/>
      <use x="1310.439453" xlink:href="#DejaVuSans-54"/>
     </g>
    </g>
    <g id="patch_93">
     <path d="M 409.647656 33.476562 
L 429.647656 33.476562 
L 429.647656 26.476562 
L 409.647656 26.476562 
z
" style="fill:url(#hc34de5a143);opacity:0.9;stroke:#000000;stroke-linejoin:miter;"/>
    </g>
    <g id="text_26">
     <!-- Longformer -->
     <defs>
      <path d="M 9.8125 72.90625 
L 19.671875 72.90625 
L 19.671875 8.296875 
L 55.171875 8.296875 
L 55.171875 0 
L 9.8125 0 
z
" id="DejaVuSans-76"/>
      <path d="M 37.109375 75.984375 
L 37.109375 68.5 
L 28.515625 68.5 
Q 23.6875 68.5 21.796875 66.546875 
Q 19.921875 64.59375 19.921875 59.515625 
L 19.921875 54.6875 
L 34.71875 54.6875 
L 34.71875 47.703125 
L 19.921875 47.703125 
L 19.921875 0 
L 10.890625 0 
L 10.890625 47.703125 
L 2.296875 47.703125 
L 2.296875 54.6875 
L 10.890625 54.6875 
L 10.890625 58.5 
Q 10.890625 67.625 15.140625 71.796875 
Q 19.390625 75.984375 28.609375 75.984375 
z
" id="DejaVuSans-102"/>
      <path d="M 52 44.1875 
Q 55.375 50.25 60.0625 53.125 
Q 64.75 56 71.09375 56 
Q 79.640625 56 84.28125 50.015625 
Q 88.921875 44.046875 88.921875 33.015625 
L 88.921875 0 
L 79.890625 0 
L 79.890625 32.71875 
Q 79.890625 40.578125 77.09375 44.375 
Q 74.3125 48.1875 68.609375 48.1875 
Q 61.625 48.1875 57.5625 43.546875 
Q 53.515625 38.921875 53.515625 30.90625 
L 53.515625 0 
L 44.484375 0 
L 44.484375 32.71875 
Q 44.484375 40.625 41.703125 44.40625 
Q 38.921875 48.1875 33.109375 48.1875 
Q 26.21875 48.1875 22.15625 43.53125 
Q 18.109375 38.875 18.109375 30.90625 
L 18.109375 0 
L 9.078125 0 
L 9.078125 54.6875 
L 18.109375 54.6875 
L 18.109375 46.1875 
Q 21.1875 51.21875 25.484375 53.609375 
Q 29.78125 56 35.6875 56 
Q 41.65625 56 45.828125 52.96875 
Q 50 49.953125 52 44.1875 
z
" id="DejaVuSans-109"/>
     </defs>
     <g transform="translate(437.647656 33.476562)scale(0.1 -0.1)">
      <use xlink:href="#DejaVuSans-76"/>
      <use x="53.962891" xlink:href="#DejaVuSans-111"/>
      <use x="115.144531" xlink:href="#DejaVuSans-110"/>
      <use x="178.523438" xlink:href="#DejaVuSans-103"/>
      <use x="242" xlink:href="#DejaVuSans-102"/>
      <use x="277.205078" xlink:href="#DejaVuSans-111"/>
      <use x="338.386719" xlink:href="#DejaVuSans-114"/>
      <use x="377.75" xlink:href="#DejaVuSans-109"/>
      <use x="475.162109" xlink:href="#DejaVuSans-101"/>
      <use x="536.685547" xlink:href="#DejaVuSans-114"/>
     </g>
    </g>
    <g id="patch_94">
     <path d="M 595.057031 18.798437 
L 615.057031 18.798437 
L 615.057031 11.798437 
L 595.057031 11.798437 
z
" style="fill:url(#h1ea96b3736);opacity:0.9;stroke:#000000;stroke-linejoin:miter;"/>
    </g>
    <g id="text_27">
     <!-- RoBERTa -->
     <defs>
      <path d="M 44.390625 34.1875 
Q 47.5625 33.109375 50.5625 29.59375 
Q 53.5625 26.078125 56.59375 19.921875 
L 66.609375 0 
L 56 0 
L 46.6875 18.703125 
Q 43.0625 26.03125 39.671875 28.421875 
Q 36.28125 30.8125 30.421875 30.8125 
L 19.671875 30.8125 
L 19.671875 0 
L 9.8125 0 
L 9.8125 72.90625 
L 32.078125 72.90625 
Q 44.578125 72.90625 50.734375 67.671875 
Q 56.890625 62.453125 56.890625 51.90625 
Q 56.890625 45.015625 53.6875 40.46875 
Q 50.484375 35.9375 44.390625 34.1875 
z
M 19.671875 64.796875 
L 19.671875 38.921875 
L 32.078125 38.921875 
Q 39.203125 38.921875 42.84375 42.21875 
Q 46.484375 45.515625 46.484375 51.90625 
Q 46.484375 58.296875 42.84375 61.546875 
Q 39.203125 64.796875 32.078125 64.796875 
z
" id="DejaVuSans-82"/>
      <path d="M 9.8125 72.90625 
L 55.90625 72.90625 
L 55.90625 64.59375 
L 19.671875 64.59375 
L 19.671875 43.015625 
L 54.390625 43.015625 
L 54.390625 34.71875 
L 19.671875 34.71875 
L 19.671875 8.296875 
L 56.78125 8.296875 
L 56.78125 0 
L 9.8125 0 
z
" id="DejaVuSans-69"/>
     </defs>
     <g transform="translate(623.057031 18.798437)scale(0.1 -0.1)">
      <use xlink:href="#DejaVuSans-82"/>
      <use x="64.982422" xlink:href="#DejaVuSans-111"/>
      <use x="126.164062" xlink:href="#DejaVuSans-66"/>
      <use x="194.767578" xlink:href="#DejaVuSans-69"/>
      <use x="257.951172" xlink:href="#DejaVuSans-82"/>
      <use x="320.183594" xlink:href="#DejaVuSans-84"/>
      <use x="364.767578" xlink:href="#DejaVuSans-97"/>
     </g>
    </g>
    <g id="patch_95">
     <path d="M 595.057031 33.476562 
L 615.057031 33.476562 
L 615.057031 26.476562 
L 595.057031 26.476562 
z
" style="fill:#8fbc8f;opacity:0.9;stroke:#000000;stroke-linejoin:miter;"/>
    </g>
    <g id="text_28">
     <!-- Poincar -->
     <defs>
      <path d="M 56.203125 29.59375 
L 56.203125 25.203125 
L 14.890625 25.203125 
Q 15.484375 15.921875 20.484375 11.0625 
Q 25.484375 6.203125 34.421875 6.203125 
Q 39.59375 6.203125 44.453125 7.46875 
Q 49.3125 8.734375 54.109375 11.28125 
L 54.109375 2.78125 
Q 49.265625 0.734375 44.1875 -0.34375 
Q 39.109375 -1.421875 33.890625 -1.421875 
Q 20.796875 -1.421875 13.15625 6.1875 
Q 5.515625 13.8125 5.515625 26.8125 
Q 5.515625 40.234375 12.765625 48.109375 
Q 20.015625 56 32.328125 56 
Q 43.359375 56 49.78125 48.890625 
Q 56.203125 41.796875 56.203125 29.59375 
z
M 47.21875 32.234375 
Q 47.125 39.59375 43.09375 43.984375 
Q 39.0625 48.390625 32.421875 48.390625 
Q 24.90625 48.390625 20.390625 44.140625 
Q 15.875 39.890625 15.1875 32.171875 
z
M 38.53125 79.984375 
L 48.25 79.984375 
L 32.34375 61.625 
L 24.859375 61.625 
z
" id="DejaVuSans-233"/>
     </defs>
     <g transform="translate(623.057031 33.476562)scale(0.1 -0.1)">
      <use xlink:href="#DejaVuSans-80"/>
      <use x="56.677734" xlink:href="#DejaVuSans-111"/>
      <use x="117.859375" xlink:href="#DejaVuSans-105"/>
      <use x="145.642578" xlink:href="#DejaVuSans-110"/>
      <use x="209.021484" xlink:href="#DejaVuSans-99"/>
      <use x="264.001953" xlink:href="#DejaVuSans-97"/>
      <use x="325.28125" xlink:href="#DejaVuSans-114"/>
      <use x="364.144531" xlink:href="#DejaVuSans-233"/>
     </g>
    </g>
   </g>
  </g>
 </g>
 <defs>
  <clipPath id="p7709db4e5e">
   <rect height="210.272157" width="727.275" x="50.14375" y="44.254431"/>
  </clipPath>
 </defs>
 <defs>
  <pattern height="72" id="he50411b5cd" patternUnits="userSpaceOnUse" width="72" x="0" y="0">
   <rect fill="#8b0000" height="73" width="73" x="0" y="0"/>
   <path d="M -36 36 
L 36 -36 
M -30 42 
L 42 -30 
M -24 48 
L 48 -24 
M -18 54 
L 54 -18 
M -12 60 
L 60 -12 
M -6 66 
L 66 -6 
M 0 72 
L 72 0 
M 6 78 
L 78 6 
M 12 84 
L 84 12 
M 18 90 
L 90 18 
M 24 96 
L 96 24 
M 30 102 
L 102 30 
M 36 108 
L 108 36 
" style="fill:#000000;stroke:#000000;stroke-linecap:butt;stroke-linejoin:miter;stroke-width:1.0;"/>
  </pattern>
  <pattern height="72" id="h4ae9aa8e33" patternUnits="userSpaceOnUse" width="72" x="0" y="0">
   <rect fill="#ff0000" height="73" width="73" x="0" y="0"/>
   <path d="M -36 36 
L 36 108 
M -30 30 
L 42 102 
M -24 24 
L 48 96 
M -18 18 
L 54 90 
M -12 12 
L 60 84 
M -6 6 
L 66 78 
M 0 0 
L 72 72 
M 6 -6 
L 78 66 
M 12 -12 
L 84 60 
M 18 -18 
L 90 54 
M 24 -24 
L 96 48 
M 30 -30 
L 102 42 
M 36 -36 
L 108 36 
" style="fill:#000000;stroke:#000000;stroke-linecap:butt;stroke-linejoin:miter;stroke-width:1.0;"/>
  </pattern>
  <pattern height="72" id="hc34de5a143" patternUnits="userSpaceOnUse" width="72" x="0" y="0">
   <rect fill="#4169e1" height="73" width="73" x="0" y="0"/>
   <path d="M -36 36 
L 36 -36 
M -24 48 
L 48 -24 
M -12 60 
L 60 -12 
M 0 72 
L 72 0 
M 12 84 
L 84 12 
M 24 96 
L 96 24 
M 36 108 
L 108 36 
M -36 36 
L 36 108 
M -24 24 
L 48 96 
M -12 12 
L 60 84 
M 0 0 
L 72 72 
M 12 -12 
L 84 60 
M 24 -24 
L 96 48 
M 36 -36 
L 108 36 
" style="fill:#000000;stroke:#000000;stroke-linecap:butt;stroke-linejoin:miter;stroke-width:1.0;"/>
  </pattern>
  <pattern height="72" id="h1ea96b3736" patternUnits="userSpaceOnUse" width="72" x="0" y="0">
   <rect fill="#0000ff" height="73" width="73" x="0" y="0"/>
   <path d="M -36 36 
L 36 -36 
M -24 48 
L 48 -24 
M -12 60 
L 60 -12 
M 0 72 
L 72 0 
M 12 84 
L 84 12 
M 24 96 
L 96 24 
M 36 108 
L 108 36 
M -36 36 
L 36 108 
M -24 24 
L 48 96 
M -12 12 
L 60 84 
M 0 0 
L 72 72 
M 12 -12 
L 84 60 
M 24 -24 
L 96 48 
M 36 -36 
L 108 36 
" style="fill:#000000;stroke:#000000;stroke-linecap:butt;stroke-linejoin:miter;stroke-width:1.0;"/>
  </pattern>
 </defs>
</svg>
